<?xml version="1.0" encoding="utf-8" standalone="no"?>
<!DOCTYPE svg PUBLIC "-//W3C//DTD SVG 1.1//EN"
  "http://www.w3.org/Graphics/SVG/1.1/DTD/svg11.dtd">
<!-- Created with matplotlib (https://matplotlib.org/) -->
<svg height="262.19625pt" version="1.1" viewBox="0 0 982.44625 262.19625" width="982.44625pt" xmlns="http://www.w3.org/2000/svg" xmlns:xlink="http://www.w3.org/1999/xlink">
 <defs>
  <style type="text/css">
*{stroke-linecap:butt;stroke-linejoin:round;}
  </style>
 </defs>
 <g id="figure_1">
  <g id="patch_1">
   <path d="M 0 262.19625 
L 982.44625 262.19625 
L 982.44625 0 
L 0 0 
z
" style="fill:none;"/>
  </g>
  <g id="axes_1">
   <g id="patch_2">
    <path d="M 82.44625 224.64 
L 276.533207 224.64 
L 276.533207 7.2 
L 82.44625 7.2 
z
" style="fill:#ffffff;"/>
   </g>
   <g id="matplotlib.axis_1">
    <g id="xtick_1">
     <g id="line2d_1">
      <defs>
       <path d="M 0 0 
L 0 3.5 
" id="m6cff1dfd55" style="stroke:#000000;stroke-width:0.8;"/>
      </defs>
      <g>
       <use style="stroke:#000000;stroke-width:0.8;" x="110.661869" xlink:href="#m6cff1dfd55" y="224.64"/>
      </g>
     </g>
     <g id="text_1">
      <!-- 5.0 -->
      <defs>
       <path d="M 10.796875 72.90625 
L 49.515625 72.90625 
L 49.515625 64.59375 
L 19.828125 64.59375 
L 19.828125 46.734375 
Q 21.96875 47.46875 24.109375 47.828125 
Q 26.265625 48.1875 28.421875 48.1875 
Q 40.625 48.1875 47.75 41.5 
Q 54.890625 34.8125 54.890625 23.390625 
Q 54.890625 11.625 47.5625 5.09375 
Q 40.234375 -1.421875 26.90625 -1.421875 
Q 22.3125 -1.421875 17.546875 -0.640625 
Q 12.796875 0.140625 7.71875 1.703125 
L 7.71875 11.625 
Q 12.109375 9.234375 16.796875 8.0625 
Q 21.484375 6.890625 26.703125 6.890625 
Q 35.15625 6.890625 40.078125 11.328125 
Q 45.015625 15.765625 45.015625 23.390625 
Q 45.015625 31 40.078125 35.4375 
Q 35.15625 39.890625 26.703125 39.890625 
Q 22.75 39.890625 18.8125 39.015625 
Q 14.890625 38.140625 10.796875 36.28125 
z
" id="DejaVuSans-53"/>
       <path d="M 10.6875 12.40625 
L 21 12.40625 
L 21 0 
L 10.6875 0 
z
" id="DejaVuSans-46"/>
       <path d="M 31.78125 66.40625 
Q 24.171875 66.40625 20.328125 58.90625 
Q 16.5 51.421875 16.5 36.375 
Q 16.5 21.390625 20.328125 13.890625 
Q 24.171875 6.390625 31.78125 6.390625 
Q 39.453125 6.390625 43.28125 13.890625 
Q 47.125 21.390625 47.125 36.375 
Q 47.125 51.421875 43.28125 58.90625 
Q 39.453125 66.40625 31.78125 66.40625 
z
M 31.78125 74.21875 
Q 44.046875 74.21875 50.515625 64.515625 
Q 56.984375 54.828125 56.984375 36.375 
Q 56.984375 17.96875 50.515625 8.265625 
Q 44.046875 -1.421875 31.78125 -1.421875 
Q 19.53125 -1.421875 13.0625 8.265625 
Q 6.59375 17.96875 6.59375 36.375 
Q 6.59375 54.828125 13.0625 64.515625 
Q 19.53125 74.21875 31.78125 74.21875 
z
" id="DejaVuSans-48"/>
      </defs>
      <g transform="translate(102.710307 239.238437)scale(0.1 -0.1)">
       <use xlink:href="#DejaVuSans-53"/>
       <use x="63.623047" xlink:href="#DejaVuSans-46"/>
       <use x="95.410156" xlink:href="#DejaVuSans-48"/>
      </g>
     </g>
    </g>
    <g id="xtick_2">
     <g id="line2d_2">
      <g>
       <use style="stroke:#000000;stroke-width:0.8;" x="148.688311" xlink:href="#m6cff1dfd55" y="224.64"/>
      </g>
     </g>
     <g id="text_2">
      <!-- 5.5 -->
      <g transform="translate(140.736748 239.238437)scale(0.1 -0.1)">
       <use xlink:href="#DejaVuSans-53"/>
       <use x="63.623047" xlink:href="#DejaVuSans-46"/>
       <use x="95.410156" xlink:href="#DejaVuSans-53"/>
      </g>
     </g>
    </g>
    <g id="xtick_3">
     <g id="line2d_3">
      <g>
       <use style="stroke:#000000;stroke-width:0.8;" x="186.714752" xlink:href="#m6cff1dfd55" y="224.64"/>
      </g>
     </g>
     <g id="text_3">
      <!-- 6.0 -->
      <defs>
       <path d="M 33.015625 40.375 
Q 26.375 40.375 22.484375 35.828125 
Q 18.609375 31.296875 18.609375 23.390625 
Q 18.609375 15.53125 22.484375 10.953125 
Q 26.375 6.390625 33.015625 6.390625 
Q 39.65625 6.390625 43.53125 10.953125 
Q 47.40625 15.53125 47.40625 23.390625 
Q 47.40625 31.296875 43.53125 35.828125 
Q 39.65625 40.375 33.015625 40.375 
z
M 52.59375 71.296875 
L 52.59375 62.3125 
Q 48.875 64.0625 45.09375 64.984375 
Q 41.3125 65.921875 37.59375 65.921875 
Q 27.828125 65.921875 22.671875 59.328125 
Q 17.53125 52.734375 16.796875 39.40625 
Q 19.671875 43.65625 24.015625 45.921875 
Q 28.375 48.1875 33.59375 48.1875 
Q 44.578125 48.1875 50.953125 41.515625 
Q 57.328125 34.859375 57.328125 23.390625 
Q 57.328125 12.15625 50.6875 5.359375 
Q 44.046875 -1.421875 33.015625 -1.421875 
Q 20.359375 -1.421875 13.671875 8.265625 
Q 6.984375 17.96875 6.984375 36.375 
Q 6.984375 53.65625 15.1875 63.9375 
Q 23.390625 74.21875 37.203125 74.21875 
Q 40.921875 74.21875 44.703125 73.484375 
Q 48.484375 72.75 52.59375 71.296875 
z
" id="DejaVuSans-54"/>
      </defs>
      <g transform="translate(178.76319 239.238437)scale(0.1 -0.1)">
       <use xlink:href="#DejaVuSans-54"/>
       <use x="63.623047" xlink:href="#DejaVuSans-46"/>
       <use x="95.410156" xlink:href="#DejaVuSans-48"/>
      </g>
     </g>
    </g>
    <g id="xtick_4">
     <g id="line2d_4">
      <g>
       <use style="stroke:#000000;stroke-width:0.8;" x="224.741193" xlink:href="#m6cff1dfd55" y="224.64"/>
      </g>
     </g>
     <g id="text_4">
      <!-- 6.5 -->
      <g transform="translate(216.789631 239.238437)scale(0.1 -0.1)">
       <use xlink:href="#DejaVuSans-54"/>
       <use x="63.623047" xlink:href="#DejaVuSans-46"/>
       <use x="95.410156" xlink:href="#DejaVuSans-53"/>
      </g>
     </g>
    </g>
    <g id="xtick_5">
     <g id="line2d_5">
      <g>
       <use style="stroke:#000000;stroke-width:0.8;" x="262.767635" xlink:href="#m6cff1dfd55" y="224.64"/>
      </g>
     </g>
     <g id="text_5">
      <!-- 7.0 -->
      <defs>
       <path d="M 8.203125 72.90625 
L 55.078125 72.90625 
L 55.078125 68.703125 
L 28.609375 0 
L 18.3125 0 
L 43.21875 64.59375 
L 8.203125 64.59375 
z
" id="DejaVuSans-55"/>
      </defs>
      <g transform="translate(254.816072 239.238437)scale(0.1 -0.1)">
       <use xlink:href="#DejaVuSans-55"/>
       <use x="63.623047" xlink:href="#DejaVuSans-46"/>
       <use x="95.410156" xlink:href="#DejaVuSans-48"/>
      </g>
     </g>
    </g>
    <g id="text_6">
     <!-- sepal length (cm) -->
     <defs>
      <path d="M 44.28125 53.078125 
L 44.28125 44.578125 
Q 40.484375 46.53125 36.375 47.5 
Q 32.28125 48.484375 27.875 48.484375 
Q 21.1875 48.484375 17.84375 46.4375 
Q 14.5 44.390625 14.5 40.28125 
Q 14.5 37.15625 16.890625 35.375 
Q 19.28125 33.59375 26.515625 31.984375 
L 29.59375 31.296875 
Q 39.15625 29.25 43.1875 25.515625 
Q 47.21875 21.78125 47.21875 15.09375 
Q 47.21875 7.46875 41.1875 3.015625 
Q 35.15625 -1.421875 24.609375 -1.421875 
Q 20.21875 -1.421875 15.453125 -0.5625 
Q 10.6875 0.296875 5.421875 2 
L 5.421875 11.28125 
Q 10.40625 8.6875 15.234375 7.390625 
Q 20.0625 6.109375 24.8125 6.109375 
Q 31.15625 6.109375 34.5625 8.28125 
Q 37.984375 10.453125 37.984375 14.40625 
Q 37.984375 18.0625 35.515625 20.015625 
Q 33.0625 21.96875 24.703125 23.78125 
L 21.578125 24.515625 
Q 13.234375 26.265625 9.515625 29.90625 
Q 5.8125 33.546875 5.8125 39.890625 
Q 5.8125 47.609375 11.28125 51.796875 
Q 16.75 56 26.8125 56 
Q 31.78125 56 36.171875 55.265625 
Q 40.578125 54.546875 44.28125 53.078125 
z
" id="DejaVuSans-115"/>
      <path d="M 56.203125 29.59375 
L 56.203125 25.203125 
L 14.890625 25.203125 
Q 15.484375 15.921875 20.484375 11.0625 
Q 25.484375 6.203125 34.421875 6.203125 
Q 39.59375 6.203125 44.453125 7.46875 
Q 49.3125 8.734375 54.109375 11.28125 
L 54.109375 2.78125 
Q 49.265625 0.734375 44.1875 -0.34375 
Q 39.109375 -1.421875 33.890625 -1.421875 
Q 20.796875 -1.421875 13.15625 6.1875 
Q 5.515625 13.8125 5.515625 26.8125 
Q 5.515625 40.234375 12.765625 48.109375 
Q 20.015625 56 32.328125 56 
Q 43.359375 56 49.78125 48.890625 
Q 56.203125 41.796875 56.203125 29.59375 
z
M 47.21875 32.234375 
Q 47.125 39.59375 43.09375 43.984375 
Q 39.0625 48.390625 32.421875 48.390625 
Q 24.90625 48.390625 20.390625 44.140625 
Q 15.875 39.890625 15.1875 32.171875 
z
" id="DejaVuSans-101"/>
      <path d="M 18.109375 8.203125 
L 18.109375 -20.796875 
L 9.078125 -20.796875 
L 9.078125 54.6875 
L 18.109375 54.6875 
L 18.109375 46.390625 
Q 20.953125 51.265625 25.265625 53.625 
Q 29.59375 56 35.59375 56 
Q 45.5625 56 51.78125 48.09375 
Q 58.015625 40.1875 58.015625 27.296875 
Q 58.015625 14.40625 51.78125 6.484375 
Q 45.5625 -1.421875 35.59375 -1.421875 
Q 29.59375 -1.421875 25.265625 0.953125 
Q 20.953125 3.328125 18.109375 8.203125 
z
M 48.6875 27.296875 
Q 48.6875 37.203125 44.609375 42.84375 
Q 40.53125 48.484375 33.40625 48.484375 
Q 26.265625 48.484375 22.1875 42.84375 
Q 18.109375 37.203125 18.109375 27.296875 
Q 18.109375 17.390625 22.1875 11.75 
Q 26.265625 6.109375 33.40625 6.109375 
Q 40.53125 6.109375 44.609375 11.75 
Q 48.6875 17.390625 48.6875 27.296875 
z
" id="DejaVuSans-112"/>
      <path d="M 34.28125 27.484375 
Q 23.390625 27.484375 19.1875 25 
Q 14.984375 22.515625 14.984375 16.5 
Q 14.984375 11.71875 18.140625 8.90625 
Q 21.296875 6.109375 26.703125 6.109375 
Q 34.1875 6.109375 38.703125 11.40625 
Q 43.21875 16.703125 43.21875 25.484375 
L 43.21875 27.484375 
z
M 52.203125 31.203125 
L 52.203125 0 
L 43.21875 0 
L 43.21875 8.296875 
Q 40.140625 3.328125 35.546875 0.953125 
Q 30.953125 -1.421875 24.3125 -1.421875 
Q 15.921875 -1.421875 10.953125 3.296875 
Q 6 8.015625 6 15.921875 
Q 6 25.140625 12.171875 29.828125 
Q 18.359375 34.515625 30.609375 34.515625 
L 43.21875 34.515625 
L 43.21875 35.40625 
Q 43.21875 41.609375 39.140625 45 
Q 35.0625 48.390625 27.6875 48.390625 
Q 23 48.390625 18.546875 47.265625 
Q 14.109375 46.140625 10.015625 43.890625 
L 10.015625 52.203125 
Q 14.9375 54.109375 19.578125 55.046875 
Q 24.21875 56 28.609375 56 
Q 40.484375 56 46.34375 49.84375 
Q 52.203125 43.703125 52.203125 31.203125 
z
" id="DejaVuSans-97"/>
      <path d="M 9.421875 75.984375 
L 18.40625 75.984375 
L 18.40625 0 
L 9.421875 0 
z
" id="DejaVuSans-108"/>
      <path id="DejaVuSans-32"/>
      <path d="M 54.890625 33.015625 
L 54.890625 0 
L 45.90625 0 
L 45.90625 32.71875 
Q 45.90625 40.484375 42.875 44.328125 
Q 39.84375 48.1875 33.796875 48.1875 
Q 26.515625 48.1875 22.3125 43.546875 
Q 18.109375 38.921875 18.109375 30.90625 
L 18.109375 0 
L 9.078125 0 
L 9.078125 54.6875 
L 18.109375 54.6875 
L 18.109375 46.1875 
Q 21.34375 51.125 25.703125 53.5625 
Q 30.078125 56 35.796875 56 
Q 45.21875 56 50.046875 50.171875 
Q 54.890625 44.34375 54.890625 33.015625 
z
" id="DejaVuSans-110"/>
      <path d="M 45.40625 27.984375 
Q 45.40625 37.75 41.375 43.109375 
Q 37.359375 48.484375 30.078125 48.484375 
Q 22.859375 48.484375 18.828125 43.109375 
Q 14.796875 37.75 14.796875 27.984375 
Q 14.796875 18.265625 18.828125 12.890625 
Q 22.859375 7.515625 30.078125 7.515625 
Q 37.359375 7.515625 41.375 12.890625 
Q 45.40625 18.265625 45.40625 27.984375 
z
M 54.390625 6.78125 
Q 54.390625 -7.171875 48.1875 -13.984375 
Q 42 -20.796875 29.203125 -20.796875 
Q 24.46875 -20.796875 20.265625 -20.09375 
Q 16.0625 -19.390625 12.109375 -17.921875 
L 12.109375 -9.1875 
Q 16.0625 -11.328125 19.921875 -12.34375 
Q 23.78125 -13.375 27.78125 -13.375 
Q 36.625 -13.375 41.015625 -8.765625 
Q 45.40625 -4.15625 45.40625 5.171875 
L 45.40625 9.625 
Q 42.625 4.78125 38.28125 2.390625 
Q 33.9375 0 27.875 0 
Q 17.828125 0 11.671875 7.65625 
Q 5.515625 15.328125 5.515625 27.984375 
Q 5.515625 40.671875 11.671875 48.328125 
Q 17.828125 56 27.875 56 
Q 33.9375 56 38.28125 53.609375 
Q 42.625 51.21875 45.40625 46.390625 
L 45.40625 54.6875 
L 54.390625 54.6875 
z
" id="DejaVuSans-103"/>
      <path d="M 18.3125 70.21875 
L 18.3125 54.6875 
L 36.8125 54.6875 
L 36.8125 47.703125 
L 18.3125 47.703125 
L 18.3125 18.015625 
Q 18.3125 11.328125 20.140625 9.421875 
Q 21.96875 7.515625 27.59375 7.515625 
L 36.8125 7.515625 
L 36.8125 0 
L 27.59375 0 
Q 17.1875 0 13.234375 3.875 
Q 9.28125 7.765625 9.28125 18.015625 
L 9.28125 47.703125 
L 2.6875 47.703125 
L 2.6875 54.6875 
L 9.28125 54.6875 
L 9.28125 70.21875 
z
" id="DejaVuSans-116"/>
      <path d="M 54.890625 33.015625 
L 54.890625 0 
L 45.90625 0 
L 45.90625 32.71875 
Q 45.90625 40.484375 42.875 44.328125 
Q 39.84375 48.1875 33.796875 48.1875 
Q 26.515625 48.1875 22.3125 43.546875 
Q 18.109375 38.921875 18.109375 30.90625 
L 18.109375 0 
L 9.078125 0 
L 9.078125 75.984375 
L 18.109375 75.984375 
L 18.109375 46.1875 
Q 21.34375 51.125 25.703125 53.5625 
Q 30.078125 56 35.796875 56 
Q 45.21875 56 50.046875 50.171875 
Q 54.890625 44.34375 54.890625 33.015625 
z
" id="DejaVuSans-104"/>
      <path d="M 31 75.875 
Q 24.46875 64.65625 21.28125 53.65625 
Q 18.109375 42.671875 18.109375 31.390625 
Q 18.109375 20.125 21.3125 9.0625 
Q 24.515625 -2 31 -13.1875 
L 23.1875 -13.1875 
Q 15.875 -1.703125 12.234375 9.375 
Q 8.59375 20.453125 8.59375 31.390625 
Q 8.59375 42.28125 12.203125 53.3125 
Q 15.828125 64.359375 23.1875 75.875 
z
" id="DejaVuSans-40"/>
      <path d="M 48.78125 52.59375 
L 48.78125 44.1875 
Q 44.96875 46.296875 41.140625 47.34375 
Q 37.3125 48.390625 33.40625 48.390625 
Q 24.65625 48.390625 19.8125 42.84375 
Q 14.984375 37.3125 14.984375 27.296875 
Q 14.984375 17.28125 19.8125 11.734375 
Q 24.65625 6.203125 33.40625 6.203125 
Q 37.3125 6.203125 41.140625 7.25 
Q 44.96875 8.296875 48.78125 10.40625 
L 48.78125 2.09375 
Q 45.015625 0.34375 40.984375 -0.53125 
Q 36.96875 -1.421875 32.421875 -1.421875 
Q 20.0625 -1.421875 12.78125 6.34375 
Q 5.515625 14.109375 5.515625 27.296875 
Q 5.515625 40.671875 12.859375 48.328125 
Q 20.21875 56 33.015625 56 
Q 37.15625 56 41.109375 55.140625 
Q 45.0625 54.296875 48.78125 52.59375 
z
" id="DejaVuSans-99"/>
      <path d="M 52 44.1875 
Q 55.375 50.25 60.0625 53.125 
Q 64.75 56 71.09375 56 
Q 79.640625 56 84.28125 50.015625 
Q 88.921875 44.046875 88.921875 33.015625 
L 88.921875 0 
L 79.890625 0 
L 79.890625 32.71875 
Q 79.890625 40.578125 77.09375 44.375 
Q 74.3125 48.1875 68.609375 48.1875 
Q 61.625 48.1875 57.5625 43.546875 
Q 53.515625 38.921875 53.515625 30.90625 
L 53.515625 0 
L 44.484375 0 
L 44.484375 32.71875 
Q 44.484375 40.625 41.703125 44.40625 
Q 38.921875 48.1875 33.109375 48.1875 
Q 26.21875 48.1875 22.15625 43.53125 
Q 18.109375 38.875 18.109375 30.90625 
L 18.109375 0 
L 9.078125 0 
L 9.078125 54.6875 
L 18.109375 54.6875 
L 18.109375 46.1875 
Q 21.1875 51.21875 25.484375 53.609375 
Q 29.78125 56 35.6875 56 
Q 41.65625 56 45.828125 52.96875 
Q 50 49.953125 52 44.1875 
z
" id="DejaVuSans-109"/>
      <path d="M 8.015625 75.875 
L 15.828125 75.875 
Q 23.140625 64.359375 26.78125 53.3125 
Q 30.421875 42.28125 30.421875 31.390625 
Q 30.421875 20.453125 26.78125 9.375 
Q 23.140625 -1.703125 15.828125 -13.1875 
L 8.015625 -13.1875 
Q 14.5 -2 17.703125 9.0625 
Q 20.90625 20.125 20.90625 31.390625 
Q 20.90625 42.671875 17.703125 53.65625 
Q 14.5 64.65625 8.015625 75.875 
z
" id="DejaVuSans-41"/>
     </defs>
     <g transform="translate(135.544416 252.916562)scale(0.1 -0.1)">
      <use xlink:href="#DejaVuSans-115"/>
      <use x="52.099609" xlink:href="#DejaVuSans-101"/>
      <use x="113.623047" xlink:href="#DejaVuSans-112"/>
      <use x="177.099609" xlink:href="#DejaVuSans-97"/>
      <use x="238.378906" xlink:href="#DejaVuSans-108"/>
      <use x="266.162109" xlink:href="#DejaVuSans-32"/>
      <use x="297.949219" xlink:href="#DejaVuSans-108"/>
      <use x="325.732422" xlink:href="#DejaVuSans-101"/>
      <use x="387.255859" xlink:href="#DejaVuSans-110"/>
      <use x="450.634766" xlink:href="#DejaVuSans-103"/>
      <use x="514.111328" xlink:href="#DejaVuSans-116"/>
      <use x="553.320312" xlink:href="#DejaVuSans-104"/>
      <use x="616.699219" xlink:href="#DejaVuSans-32"/>
      <use x="648.486328" xlink:href="#DejaVuSans-40"/>
      <use x="687.5" xlink:href="#DejaVuSans-99"/>
      <use x="742.480469" xlink:href="#DejaVuSans-109"/>
      <use x="839.892578" xlink:href="#DejaVuSans-41"/>
     </g>
    </g>
   </g>
   <g id="matplotlib.axis_2">
    <g id="ytick_1">
     <g id="line2d_6">
      <defs>
       <path d="M 0 0 
L -3.5 0 
" id="m7af37dfbe4" style="stroke:#000000;stroke-width:0.8;"/>
      </defs>
      <g>
       <use style="stroke:#000000;stroke-width:0.8;" x="82.44625" xlink:href="#m7af37dfbe4" y="216.47513"/>
      </g>
     </g>
     <g id="text_7">
      <!-- −0.0025 -->
      <defs>
       <path d="M 10.59375 35.5 
L 73.1875 35.5 
L 73.1875 27.203125 
L 10.59375 27.203125 
z
" id="DejaVuSans-8722"/>
       <path d="M 19.1875 8.296875 
L 53.609375 8.296875 
L 53.609375 0 
L 7.328125 0 
L 7.328125 8.296875 
Q 12.9375 14.109375 22.625 23.890625 
Q 32.328125 33.6875 34.8125 36.53125 
Q 39.546875 41.84375 41.421875 45.53125 
Q 43.3125 49.21875 43.3125 52.78125 
Q 43.3125 58.59375 39.234375 62.25 
Q 35.15625 65.921875 28.609375 65.921875 
Q 23.96875 65.921875 18.8125 64.3125 
Q 13.671875 62.703125 7.8125 59.421875 
L 7.8125 69.390625 
Q 13.765625 71.78125 18.9375 73 
Q 24.125 74.21875 28.421875 74.21875 
Q 39.75 74.21875 46.484375 68.546875 
Q 53.21875 62.890625 53.21875 53.421875 
Q 53.21875 48.921875 51.53125 44.890625 
Q 49.859375 40.875 45.40625 35.40625 
Q 44.1875 33.984375 37.640625 27.21875 
Q 31.109375 20.453125 19.1875 8.296875 
z
" id="DejaVuSans-50"/>
      </defs>
      <g transform="translate(32.075938 220.274349)scale(0.1 -0.1)">
       <use xlink:href="#DejaVuSans-8722"/>
       <use x="83.789062" xlink:href="#DejaVuSans-48"/>
       <use x="147.412109" xlink:href="#DejaVuSans-46"/>
       <use x="179.199219" xlink:href="#DejaVuSans-48"/>
       <use x="242.822266" xlink:href="#DejaVuSans-48"/>
       <use x="306.445312" xlink:href="#DejaVuSans-50"/>
       <use x="370.068359" xlink:href="#DejaVuSans-53"/>
      </g>
     </g>
    </g>
    <g id="ytick_2">
     <g id="line2d_7">
      <g>
       <use style="stroke:#000000;stroke-width:0.8;" x="82.44625" xlink:href="#m7af37dfbe4" y="177.480728"/>
      </g>
     </g>
     <g id="text_8">
      <!-- −0.0020 -->
      <g transform="translate(32.075938 181.279946)scale(0.1 -0.1)">
       <use xlink:href="#DejaVuSans-8722"/>
       <use x="83.789062" xlink:href="#DejaVuSans-48"/>
       <use x="147.412109" xlink:href="#DejaVuSans-46"/>
       <use x="179.199219" xlink:href="#DejaVuSans-48"/>
       <use x="242.822266" xlink:href="#DejaVuSans-48"/>
       <use x="306.445312" xlink:href="#DejaVuSans-50"/>
       <use x="370.068359" xlink:href="#DejaVuSans-48"/>
      </g>
     </g>
    </g>
    <g id="ytick_3">
     <g id="line2d_8">
      <g>
       <use style="stroke:#000000;stroke-width:0.8;" x="82.44625" xlink:href="#m7af37dfbe4" y="138.486325"/>
      </g>
     </g>
     <g id="text_9">
      <!-- −0.0015 -->
      <defs>
       <path d="M 12.40625 8.296875 
L 28.515625 8.296875 
L 28.515625 63.921875 
L 10.984375 60.40625 
L 10.984375 69.390625 
L 28.421875 72.90625 
L 38.28125 72.90625 
L 38.28125 8.296875 
L 54.390625 8.296875 
L 54.390625 0 
L 12.40625 0 
z
" id="DejaVuSans-49"/>
      </defs>
      <g transform="translate(32.075938 142.285544)scale(0.1 -0.1)">
       <use xlink:href="#DejaVuSans-8722"/>
       <use x="83.789062" xlink:href="#DejaVuSans-48"/>
       <use x="147.412109" xlink:href="#DejaVuSans-46"/>
       <use x="179.199219" xlink:href="#DejaVuSans-48"/>
       <use x="242.822266" xlink:href="#DejaVuSans-48"/>
       <use x="306.445312" xlink:href="#DejaVuSans-49"/>
       <use x="370.068359" xlink:href="#DejaVuSans-53"/>
      </g>
     </g>
    </g>
    <g id="ytick_4">
     <g id="line2d_9">
      <g>
       <use style="stroke:#000000;stroke-width:0.8;" x="82.44625" xlink:href="#m7af37dfbe4" y="99.491923"/>
      </g>
     </g>
     <g id="text_10">
      <!-- −0.0010 -->
      <g transform="translate(32.075938 103.291141)scale(0.1 -0.1)">
       <use xlink:href="#DejaVuSans-8722"/>
       <use x="83.789062" xlink:href="#DejaVuSans-48"/>
       <use x="147.412109" xlink:href="#DejaVuSans-46"/>
       <use x="179.199219" xlink:href="#DejaVuSans-48"/>
       <use x="242.822266" xlink:href="#DejaVuSans-48"/>
       <use x="306.445312" xlink:href="#DejaVuSans-49"/>
       <use x="370.068359" xlink:href="#DejaVuSans-48"/>
      </g>
     </g>
    </g>
    <g id="ytick_5">
     <g id="line2d_10">
      <g>
       <use style="stroke:#000000;stroke-width:0.8;" x="82.44625" xlink:href="#m7af37dfbe4" y="60.49752"/>
      </g>
     </g>
     <g id="text_11">
      <!-- −0.0005 -->
      <g transform="translate(32.075938 64.296739)scale(0.1 -0.1)">
       <use xlink:href="#DejaVuSans-8722"/>
       <use x="83.789062" xlink:href="#DejaVuSans-48"/>
       <use x="147.412109" xlink:href="#DejaVuSans-46"/>
       <use x="179.199219" xlink:href="#DejaVuSans-48"/>
       <use x="242.822266" xlink:href="#DejaVuSans-48"/>
       <use x="306.445312" xlink:href="#DejaVuSans-48"/>
       <use x="370.068359" xlink:href="#DejaVuSans-53"/>
      </g>
     </g>
    </g>
    <g id="ytick_6">
     <g id="line2d_11">
      <g>
       <use style="stroke:#000000;stroke-width:0.8;" x="82.44625" xlink:href="#m7af37dfbe4" y="21.503118"/>
      </g>
     </g>
     <g id="text_12">
      <!-- 0.0000 -->
      <g transform="translate(40.455625 25.302336)scale(0.1 -0.1)">
       <use xlink:href="#DejaVuSans-48"/>
       <use x="63.623047" xlink:href="#DejaVuSans-46"/>
       <use x="95.410156" xlink:href="#DejaVuSans-48"/>
       <use x="159.033203" xlink:href="#DejaVuSans-48"/>
       <use x="222.65625" xlink:href="#DejaVuSans-48"/>
       <use x="286.279297" xlink:href="#DejaVuSans-48"/>
      </g>
     </g>
    </g>
    <g id="text_13">
     <!-- partial effect -->
     <defs>
      <path d="M 41.109375 46.296875 
Q 39.59375 47.171875 37.8125 47.578125 
Q 36.03125 48 33.890625 48 
Q 26.265625 48 22.1875 43.046875 
Q 18.109375 38.09375 18.109375 28.8125 
L 18.109375 0 
L 9.078125 0 
L 9.078125 54.6875 
L 18.109375 54.6875 
L 18.109375 46.1875 
Q 20.953125 51.171875 25.484375 53.578125 
Q 30.03125 56 36.53125 56 
Q 37.453125 56 38.578125 55.875 
Q 39.703125 55.765625 41.0625 55.515625 
z
" id="DejaVuSans-114"/>
      <path d="M 9.421875 54.6875 
L 18.40625 54.6875 
L 18.40625 0 
L 9.421875 0 
z
M 9.421875 75.984375 
L 18.40625 75.984375 
L 18.40625 64.59375 
L 9.421875 64.59375 
z
" id="DejaVuSans-105"/>
      <path d="M 37.109375 75.984375 
L 37.109375 68.5 
L 28.515625 68.5 
Q 23.6875 68.5 21.796875 66.546875 
Q 19.921875 64.59375 19.921875 59.515625 
L 19.921875 54.6875 
L 34.71875 54.6875 
L 34.71875 47.703125 
L 19.921875 47.703125 
L 19.921875 0 
L 10.890625 0 
L 10.890625 47.703125 
L 2.296875 47.703125 
L 2.296875 54.6875 
L 10.890625 54.6875 
L 10.890625 58.5 
Q 10.890625 67.625 15.140625 71.796875 
Q 19.390625 75.984375 28.609375 75.984375 
z
" id="DejaVuSans-102"/>
     </defs>
     <g transform="translate(14.798438 147.987969)rotate(-90)scale(0.1 -0.1)">
      <use xlink:href="#DejaVuSans-112"/>
      <use x="63.476562" xlink:href="#DejaVuSans-97"/>
      <use x="124.755859" xlink:href="#DejaVuSans-114"/>
      <use x="165.869141" xlink:href="#DejaVuSans-116"/>
      <use x="205.078125" xlink:href="#DejaVuSans-105"/>
      <use x="232.861328" xlink:href="#DejaVuSans-97"/>
      <use x="294.140625" xlink:href="#DejaVuSans-108"/>
      <use x="321.923828" xlink:href="#DejaVuSans-32"/>
      <use x="353.710938" xlink:href="#DejaVuSans-101"/>
      <use x="415.234375" xlink:href="#DejaVuSans-102"/>
      <use x="450.439453" xlink:href="#DejaVuSans-102"/>
      <use x="485.644531" xlink:href="#DejaVuSans-101"/>
      <use x="547.167969" xlink:href="#DejaVuSans-99"/>
      <use x="602.148438" xlink:href="#DejaVuSans-116"/>
     </g>
     <!-- at the means -->
     <g transform="translate(25.99625 149.112187)rotate(-90)scale(0.1 -0.1)">
      <use xlink:href="#DejaVuSans-97"/>
      <use x="61.279297" xlink:href="#DejaVuSans-116"/>
      <use x="100.488281" xlink:href="#DejaVuSans-32"/>
      <use x="132.275391" xlink:href="#DejaVuSans-116"/>
      <use x="171.484375" xlink:href="#DejaVuSans-104"/>
      <use x="234.863281" xlink:href="#DejaVuSans-101"/>
      <use x="296.386719" xlink:href="#DejaVuSans-32"/>
      <use x="328.173828" xlink:href="#DejaVuSans-109"/>
      <use x="425.585938" xlink:href="#DejaVuSans-101"/>
      <use x="487.109375" xlink:href="#DejaVuSans-97"/>
      <use x="548.388672" xlink:href="#DejaVuSans-110"/>
      <use x="611.767578" xlink:href="#DejaVuSans-115"/>
     </g>
    </g>
   </g>
   <g id="line2d_12">
    <path clip-path="url(#p69f1b1eed9)" d="M 91.268384 46.876541 
L 93.050634 47.264904 
L 94.832883 47.657262 
L 96.615133 48.053627 
L 98.397382 48.454015 
L 100.179631 48.858468 
L 101.961881 49.266976 
L 103.74413 49.679591 
L 105.526379 50.096326 
L 107.308629 50.517179 
L 109.090878 50.942199 
L 110.873127 51.371381 
L 112.655377 51.804771 
L 114.437626 52.242385 
L 116.219876 52.684222 
L 118.002125 53.130325 
L 119.784374 53.580709 
L 121.566624 54.0354 
L 123.348873 54.4944 
L 125.131122 54.957748 
L 126.913372 55.425468 
L 128.695621 55.897558 
L 130.477871 56.374071 
L 132.26012 56.854998 
L 134.042369 57.340358 
L 135.824619 57.830212 
L 137.606868 58.324555 
L 139.389117 58.82339 
L 141.171367 59.326768 
L 142.953616 59.834703 
L 144.735866 60.34718 
L 146.518115 60.864271 
L 148.300364 61.385974 
L 150.082614 61.912281 
L 151.864863 62.443268 
L 153.647112 62.978923 
L 155.429362 63.519301 
L 157.211611 64.06438 
L 158.99386 64.61416 
L 160.77611 65.168716 
L 162.558359 65.72809 
L 164.340609 66.29224 
L 166.122858 66.861195 
L 167.905107 67.434995 
L 169.687357 68.013643 
L 171.469606 68.597215 
L 173.251855 69.185618 
L 175.034105 69.77899 
L 176.816354 70.377319 
L 178.598604 70.980607 
L 180.380853 71.58885 
L 182.163102 72.202079 
L 183.945352 72.820406 
L 185.727601 73.443706 
L 187.50985 74.072146 
L 189.2921 74.705598 
L 191.074349 75.344177 
L 192.856599 75.987915 
L 194.638848 76.636769 
L 196.421097 77.290786 
L 198.203347 77.950013 
L 199.985596 78.614427 
L 201.767845 79.284103 
L 203.550095 79.959018 
L 205.332344 80.63919 
L 207.114594 81.324641 
L 208.896843 82.015436 
L 210.679092 82.711525 
L 212.461342 83.413006 
L 214.243591 84.119809 
L 216.02584 84.832006 
L 217.80809 85.549639 
L 219.590339 86.272713 
L 221.372588 87.001211 
L 223.154838 87.735199 
L 224.937087 88.474675 
L 226.719337 89.219621 
L 228.501586 89.970176 
L 230.283835 90.726185 
L 232.066085 91.487871 
L 233.848334 92.25507 
L 235.630583 93.027905 
L 237.412833 93.806402 
L 239.195082 94.590533 
L 240.977332 95.380288 
L 242.759581 96.175824 
L 244.54183 96.976971 
L 246.32408 97.783889 
L 248.106329 98.596544 
L 249.888578 99.41504 
L 251.670828 100.239268 
L 253.453077 101.069308 
L 255.235327 101.905148 
L 257.017576 102.74688 
L 258.799825 103.594474 
L 260.582075 104.447936 
L 262.364324 105.307331 
L 264.146573 106.172665 
L 265.928823 107.043832 
L 267.711072 107.921093 
" style="fill:none;stroke:#1f77b4;stroke-linecap:square;stroke-width:1.5;"/>
   </g>
   <g id="line2d_13">
    <path clip-path="url(#p69f1b1eed9)" d="M 91.268384 214.756364 
L 93.050634 214.071379 
L 94.832883 213.392123 
L 96.615133 212.718538 
L 98.397382 212.050521 
L 100.179631 211.388039 
L 101.961881 210.730987 
L 103.74413 210.079311 
L 105.526379 209.432963 
L 107.308629 208.7918 
L 109.090878 208.155826 
L 110.873127 207.524959 
L 112.655377 206.899112 
L 114.437626 206.278246 
L 116.219876 205.662304 
L 118.002125 205.051169 
L 119.784374 204.444877 
L 121.566624 203.843289 
L 123.348873 203.246372 
L 125.131122 202.654054 
L 126.913372 202.066335 
L 128.695621 201.483085 
L 130.477871 200.904303 
L 132.26012 200.329894 
L 134.042369 199.759842 
L 135.824619 199.194089 
L 137.606868 198.63257 
L 139.389117 198.075258 
L 141.171367 197.522054 
L 142.953616 196.972972 
L 144.735866 196.427916 
L 146.518115 195.886867 
L 148.300364 195.349769 
L 150.082614 194.816565 
L 151.864863 194.287235 
L 153.647112 193.761692 
L 155.429362 193.239976 
L 157.211611 192.721969 
L 158.99386 192.207641 
L 160.77611 191.696955 
L 162.558359 191.18989 
L 164.340609 190.686402 
L 166.122858 190.186428 
L 167.905107 189.68993 
L 169.687357 189.196903 
L 171.469606 188.707279 
L 173.251855 188.221015 
L 175.034105 187.738109 
L 176.816354 187.258497 
L 178.598604 186.782158 
L 180.380853 186.309055 
L 182.163102 185.83912 
L 183.945352 185.372396 
L 185.727601 184.908751 
L 187.50985 184.448253 
L 189.2921 183.990768 
L 191.074349 183.53634 
L 192.856599 183.084896 
L 194.638848 182.636429 
L 196.421097 182.190913 
L 198.203347 181.748317 
L 199.985596 181.308557 
L 201.767845 180.871677 
L 203.550095 180.437592 
L 205.332344 180.006336 
L 207.114594 179.577802 
L 208.896843 179.152005 
L 210.679092 178.728937 
L 212.461342 178.308546 
L 214.243591 177.89078 
L 216.02584 177.475665 
L 217.80809 177.063138 
L 219.590339 176.653202 
L 221.372588 176.245798 
L 223.154838 175.840921 
L 224.937087 175.438558 
L 226.719337 175.038648 
L 228.501586 174.641213 
L 230.283835 174.246171 
L 232.066085 173.853584 
L 233.848334 173.463354 
L 235.630583 173.075458 
L 237.412833 172.689938 
L 239.195082 172.306719 
L 240.977332 171.925768 
L 242.759581 171.54712 
L 244.54183 171.170692 
L 246.32408 170.796518 
L 248.106329 170.424519 
L 249.888578 170.054749 
L 251.670828 169.68712 
L 253.453077 169.321639 
L 255.235327 168.958273 
L 257.017576 168.597043 
L 258.799825 168.237886 
L 260.582075 167.880798 
L 262.364324 167.525755 
L 264.146573 167.172754 
L 265.928823 166.821736 
L 267.711072 166.472739 
" style="fill:none;stroke:#ff7f0e;stroke-linecap:square;stroke-width:1.5;"/>
   </g>
   <g id="line2d_14">
    <path clip-path="url(#p69f1b1eed9)" d="M 91.268384 20.356672 
L 93.050634 20.337364 
L 94.832883 20.317827 
L 96.615133 20.298062 
L 98.397382 20.278065 
L 100.179631 20.257835 
L 101.961881 20.237371 
L 103.74413 20.216671 
L 105.526379 20.195732 
L 107.308629 20.174556 
L 109.090878 20.153138 
L 110.873127 20.131479 
L 112.655377 20.109576 
L 114.437626 20.087426 
L 116.219876 20.065031 
L 118.002125 20.042386 
L 119.784374 20.019492 
L 121.566624 19.996345 
L 123.348873 19.972945 
L 125.131122 19.949291 
L 126.913372 19.925379 
L 128.695621 19.901209 
L 130.477871 19.876779 
L 132.26012 19.852089 
L 134.042369 19.827135 
L 135.824619 19.801916 
L 137.606868 19.77643 
L 139.389117 19.750678 
L 141.171367 19.724655 
L 142.953616 19.69836 
L 144.735866 19.671794 
L 146.518115 19.644953 
L 148.300364 19.617835 
L 150.082614 19.590442 
L 151.864863 19.562767 
L 153.647112 19.534812 
L 155.429362 19.506573 
L 157.211611 19.47805 
L 158.99386 19.449243 
L 160.77611 19.420147 
L 162.558359 19.39076 
L 164.340609 19.361083 
L 166.122858 19.331114 
L 167.905107 19.30085 
L 169.687357 19.270291 
L 171.469606 19.239432 
L 173.251855 19.208278 
L 175.034105 19.17682 
L 176.816354 19.145058 
L 178.598604 19.112993 
L 180.380853 19.080622 
L 182.163102 19.047945 
L 183.945352 19.014955 
L 185.727601 18.981657 
L 187.50985 18.948042 
L 189.2921 18.914117 
L 191.074349 18.879874 
L 192.856599 18.845312 
L 194.638848 18.810431 
L 196.421097 18.77523 
L 198.203347 18.739704 
L 199.985596 18.703854 
L 201.767845 18.667677 
L 203.550095 18.631171 
L 205.332344 18.594336 
L 207.114594 18.55717 
L 208.896843 18.519668 
L 210.679092 18.481834 
L 212.461342 18.44366 
L 214.243591 18.40515 
L 216.02584 18.366299 
L 217.80809 18.327105 
L 219.590339 18.287567 
L 221.372588 18.247684 
L 223.154838 18.207453 
L 224.937087 18.166873 
L 226.719337 18.125945 
L 228.501586 18.084659 
L 230.283835 18.043025 
L 232.066085 18.001029 
L 233.848334 17.958678 
L 235.630583 17.915967 
L 237.412833 17.872893 
L 239.195082 17.829457 
L 240.977332 17.785658 
L 242.759581 17.741487 
L 244.54183 17.696954 
L 246.32408 17.652048 
L 248.106329 17.60677 
L 249.888578 17.561115 
L 251.670828 17.515087 
L 253.453077 17.468682 
L 255.235327 17.421898 
L 257.017576 17.374732 
L 258.799825 17.327183 
L 260.582075 17.279251 
L 262.364324 17.23093 
L 264.146573 17.182221 
L 265.928823 17.133128 
L 267.711072 17.083636 
" style="fill:none;stroke:#2ca02c;stroke-linecap:square;stroke-width:1.5;"/>
   </g>
   <g id="patch_3">
    <path d="M 82.44625 224.64 
L 82.44625 7.2 
" style="fill:none;stroke:#000000;stroke-linecap:square;stroke-linejoin:miter;stroke-width:0.8;"/>
   </g>
   <g id="patch_4">
    <path d="M 276.533207 224.64 
L 276.533207 7.2 
" style="fill:none;stroke:#000000;stroke-linecap:square;stroke-linejoin:miter;stroke-width:0.8;"/>
   </g>
   <g id="patch_5">
    <path d="M 82.44625 224.64 
L 276.533207 224.64 
" style="fill:none;stroke:#000000;stroke-linecap:square;stroke-linejoin:miter;stroke-width:0.8;"/>
   </g>
   <g id="patch_6">
    <path d="M 82.44625 7.2 
L 276.533207 7.2 
" style="fill:none;stroke:#000000;stroke-linecap:square;stroke-linejoin:miter;stroke-width:0.8;"/>
   </g>
   <g id="legend_1">
    <g id="patch_7">
     <path d="M 89.44625 139.437187 
L 170.241563 139.437187 
Q 172.241563 139.437187 172.241563 137.437187 
L 172.241563 94.402812 
Q 172.241563 92.402812 170.241563 92.402812 
L 89.44625 92.402812 
Q 87.44625 92.402812 87.44625 94.402812 
L 87.44625 137.437187 
Q 87.44625 139.437187 89.44625 139.437187 
z
" style="fill:#ffffff;opacity:0.8;stroke:#cccccc;stroke-linejoin:miter;"/>
    </g>
    <g id="line2d_15">
     <path d="M 91.44625 100.50125 
L 111.44625 100.50125 
" style="fill:none;stroke:#1f77b4;stroke-linecap:square;stroke-width:1.5;"/>
    </g>
    <g id="line2d_16"/>
    <g id="text_14">
     <!-- setosa -->
     <defs>
      <path d="M 30.609375 48.390625 
Q 23.390625 48.390625 19.1875 42.75 
Q 14.984375 37.109375 14.984375 27.296875 
Q 14.984375 17.484375 19.15625 11.84375 
Q 23.34375 6.203125 30.609375 6.203125 
Q 37.796875 6.203125 41.984375 11.859375 
Q 46.1875 17.53125 46.1875 27.296875 
Q 46.1875 37.015625 41.984375 42.703125 
Q 37.796875 48.390625 30.609375 48.390625 
z
M 30.609375 56 
Q 42.328125 56 49.015625 48.375 
Q 55.71875 40.765625 55.71875 27.296875 
Q 55.71875 13.875 49.015625 6.21875 
Q 42.328125 -1.421875 30.609375 -1.421875 
Q 18.84375 -1.421875 12.171875 6.21875 
Q 5.515625 13.875 5.515625 27.296875 
Q 5.515625 40.765625 12.171875 48.375 
Q 18.84375 56 30.609375 56 
z
" id="DejaVuSans-111"/>
     </defs>
     <g transform="translate(119.44625 104.00125)scale(0.1 -0.1)">
      <use xlink:href="#DejaVuSans-115"/>
      <use x="52.099609" xlink:href="#DejaVuSans-101"/>
      <use x="113.623047" xlink:href="#DejaVuSans-116"/>
      <use x="152.832031" xlink:href="#DejaVuSans-111"/>
      <use x="214.013672" xlink:href="#DejaVuSans-115"/>
      <use x="266.113281" xlink:href="#DejaVuSans-97"/>
     </g>
    </g>
    <g id="line2d_17">
     <path d="M 91.44625 115.179375 
L 111.44625 115.179375 
" style="fill:none;stroke:#ff7f0e;stroke-linecap:square;stroke-width:1.5;"/>
    </g>
    <g id="line2d_18"/>
    <g id="text_15">
     <!-- versicolor -->
     <defs>
      <path d="M 2.984375 54.6875 
L 12.5 54.6875 
L 29.59375 8.796875 
L 46.6875 54.6875 
L 56.203125 54.6875 
L 35.6875 0 
L 23.484375 0 
z
" id="DejaVuSans-118"/>
     </defs>
     <g transform="translate(119.44625 118.679375)scale(0.1 -0.1)">
      <use xlink:href="#DejaVuSans-118"/>
      <use x="59.179688" xlink:href="#DejaVuSans-101"/>
      <use x="120.703125" xlink:href="#DejaVuSans-114"/>
      <use x="161.816406" xlink:href="#DejaVuSans-115"/>
      <use x="213.916016" xlink:href="#DejaVuSans-105"/>
      <use x="241.699219" xlink:href="#DejaVuSans-99"/>
      <use x="296.679688" xlink:href="#DejaVuSans-111"/>
      <use x="357.861328" xlink:href="#DejaVuSans-108"/>
      <use x="385.644531" xlink:href="#DejaVuSans-111"/>
      <use x="446.826172" xlink:href="#DejaVuSans-114"/>
     </g>
    </g>
    <g id="line2d_19">
     <path d="M 91.44625 129.8575 
L 111.44625 129.8575 
" style="fill:none;stroke:#2ca02c;stroke-linecap:square;stroke-width:1.5;"/>
    </g>
    <g id="line2d_20"/>
    <g id="text_16">
     <!-- virginica -->
     <g transform="translate(119.44625 133.3575)scale(0.1 -0.1)">
      <use xlink:href="#DejaVuSans-118"/>
      <use x="59.179688" xlink:href="#DejaVuSans-105"/>
      <use x="86.962891" xlink:href="#DejaVuSans-114"/>
      <use x="126.326172" xlink:href="#DejaVuSans-103"/>
      <use x="189.802734" xlink:href="#DejaVuSans-105"/>
      <use x="217.585938" xlink:href="#DejaVuSans-110"/>
      <use x="280.964844" xlink:href="#DejaVuSans-105"/>
      <use x="308.748047" xlink:href="#DejaVuSans-99"/>
      <use x="363.728516" xlink:href="#DejaVuSans-97"/>
     </g>
    </g>
   </g>
  </g>
  <g id="axes_2">
   <g id="patch_8">
    <path d="M 315.350598 224.64 
L 509.437554 224.64 
L 509.437554 7.2 
L 315.350598 7.2 
z
" style="fill:#ffffff;"/>
   </g>
   <g id="matplotlib.axis_3">
    <g id="xtick_6">
     <g id="line2d_21">
      <g>
       <use style="stroke:#000000;stroke-width:0.8;" x="324.172732" xlink:href="#m6cff1dfd55" y="224.64"/>
      </g>
     </g>
     <g id="text_17">
      <!-- 2.50 -->
      <g transform="translate(313.03992 239.238437)scale(0.1 -0.1)">
       <use xlink:href="#DejaVuSans-50"/>
       <use x="63.623047" xlink:href="#DejaVuSans-46"/>
       <use x="95.410156" xlink:href="#DejaVuSans-53"/>
       <use x="159.033203" xlink:href="#DejaVuSans-48"/>
      </g>
     </g>
    </g>
    <g id="xtick_7">
     <g id="line2d_22">
      <g>
       <use style="stroke:#000000;stroke-width:0.8;" x="356.726734" xlink:href="#m6cff1dfd55" y="224.64"/>
      </g>
     </g>
     <g id="text_18">
      <!-- 2.75 -->
      <g transform="translate(345.593921 239.238437)scale(0.1 -0.1)">
       <use xlink:href="#DejaVuSans-50"/>
       <use x="63.623047" xlink:href="#DejaVuSans-46"/>
       <use x="95.410156" xlink:href="#DejaVuSans-55"/>
       <use x="159.033203" xlink:href="#DejaVuSans-53"/>
      </g>
     </g>
    </g>
    <g id="xtick_8">
     <g id="line2d_23">
      <g>
       <use style="stroke:#000000;stroke-width:0.8;" x="389.280735" xlink:href="#m6cff1dfd55" y="224.64"/>
      </g>
     </g>
     <g id="text_19">
      <!-- 3.00 -->
      <defs>
       <path d="M 40.578125 39.3125 
Q 47.65625 37.796875 51.625 33 
Q 55.609375 28.21875 55.609375 21.1875 
Q 55.609375 10.40625 48.1875 4.484375 
Q 40.765625 -1.421875 27.09375 -1.421875 
Q 22.515625 -1.421875 17.65625 -0.515625 
Q 12.796875 0.390625 7.625 2.203125 
L 7.625 11.71875 
Q 11.71875 9.328125 16.59375 8.109375 
Q 21.484375 6.890625 26.8125 6.890625 
Q 36.078125 6.890625 40.9375 10.546875 
Q 45.796875 14.203125 45.796875 21.1875 
Q 45.796875 27.640625 41.28125 31.265625 
Q 36.765625 34.90625 28.71875 34.90625 
L 20.21875 34.90625 
L 20.21875 43.015625 
L 29.109375 43.015625 
Q 36.375 43.015625 40.234375 45.921875 
Q 44.09375 48.828125 44.09375 54.296875 
Q 44.09375 59.90625 40.109375 62.90625 
Q 36.140625 65.921875 28.71875 65.921875 
Q 24.65625 65.921875 20.015625 65.03125 
Q 15.375 64.15625 9.8125 62.3125 
L 9.8125 71.09375 
Q 15.4375 72.65625 20.34375 73.4375 
Q 25.25 74.21875 29.59375 74.21875 
Q 40.828125 74.21875 47.359375 69.109375 
Q 53.90625 64.015625 53.90625 55.328125 
Q 53.90625 49.265625 50.4375 45.09375 
Q 46.96875 40.921875 40.578125 39.3125 
z
" id="DejaVuSans-51"/>
      </defs>
      <g transform="translate(378.147923 239.238437)scale(0.1 -0.1)">
       <use xlink:href="#DejaVuSans-51"/>
       <use x="63.623047" xlink:href="#DejaVuSans-46"/>
       <use x="95.410156" xlink:href="#DejaVuSans-48"/>
       <use x="159.033203" xlink:href="#DejaVuSans-48"/>
      </g>
     </g>
    </g>
    <g id="xtick_9">
     <g id="line2d_24">
      <g>
       <use style="stroke:#000000;stroke-width:0.8;" x="421.834737" xlink:href="#m6cff1dfd55" y="224.64"/>
      </g>
     </g>
     <g id="text_20">
      <!-- 3.25 -->
      <g transform="translate(410.701924 239.238437)scale(0.1 -0.1)">
       <use xlink:href="#DejaVuSans-51"/>
       <use x="63.623047" xlink:href="#DejaVuSans-46"/>
       <use x="95.410156" xlink:href="#DejaVuSans-50"/>
       <use x="159.033203" xlink:href="#DejaVuSans-53"/>
      </g>
     </g>
    </g>
    <g id="xtick_10">
     <g id="line2d_25">
      <g>
       <use style="stroke:#000000;stroke-width:0.8;" x="454.388738" xlink:href="#m6cff1dfd55" y="224.64"/>
      </g>
     </g>
     <g id="text_21">
      <!-- 3.50 -->
      <g transform="translate(443.255925 239.238437)scale(0.1 -0.1)">
       <use xlink:href="#DejaVuSans-51"/>
       <use x="63.623047" xlink:href="#DejaVuSans-46"/>
       <use x="95.410156" xlink:href="#DejaVuSans-53"/>
       <use x="159.033203" xlink:href="#DejaVuSans-48"/>
      </g>
     </g>
    </g>
    <g id="xtick_11">
     <g id="line2d_26">
      <g>
       <use style="stroke:#000000;stroke-width:0.8;" x="486.942739" xlink:href="#m6cff1dfd55" y="224.64"/>
      </g>
     </g>
     <g id="text_22">
      <!-- 3.75 -->
      <g transform="translate(475.809927 239.238437)scale(0.1 -0.1)">
       <use xlink:href="#DejaVuSans-51"/>
       <use x="63.623047" xlink:href="#DejaVuSans-46"/>
       <use x="95.410156" xlink:href="#DejaVuSans-55"/>
       <use x="159.033203" xlink:href="#DejaVuSans-53"/>
      </g>
     </g>
    </g>
    <g id="text_23">
     <!-- sepal width (cm) -->
     <defs>
      <path d="M 4.203125 54.6875 
L 13.1875 54.6875 
L 24.421875 12.015625 
L 35.59375 54.6875 
L 46.1875 54.6875 
L 57.421875 12.015625 
L 68.609375 54.6875 
L 77.59375 54.6875 
L 63.28125 0 
L 52.6875 0 
L 40.921875 44.828125 
L 29.109375 0 
L 18.5 0 
z
" id="DejaVuSans-119"/>
      <path d="M 45.40625 46.390625 
L 45.40625 75.984375 
L 54.390625 75.984375 
L 54.390625 0 
L 45.40625 0 
L 45.40625 8.203125 
Q 42.578125 3.328125 38.25 0.953125 
Q 33.9375 -1.421875 27.875 -1.421875 
Q 17.96875 -1.421875 11.734375 6.484375 
Q 5.515625 14.40625 5.515625 27.296875 
Q 5.515625 40.1875 11.734375 48.09375 
Q 17.96875 56 27.875 56 
Q 33.9375 56 38.25 53.625 
Q 42.578125 51.265625 45.40625 46.390625 
z
M 14.796875 27.296875 
Q 14.796875 17.390625 18.875 11.75 
Q 22.953125 6.109375 30.078125 6.109375 
Q 37.203125 6.109375 41.296875 11.75 
Q 45.40625 17.390625 45.40625 27.296875 
Q 45.40625 37.203125 41.296875 42.84375 
Q 37.203125 48.484375 30.078125 48.484375 
Q 22.953125 48.484375 18.875 42.84375 
Q 14.796875 37.203125 14.796875 27.296875 
z
" id="DejaVuSans-100"/>
     </defs>
     <g transform="translate(370.605014 252.916562)scale(0.1 -0.1)">
      <use xlink:href="#DejaVuSans-115"/>
      <use x="52.099609" xlink:href="#DejaVuSans-101"/>
      <use x="113.623047" xlink:href="#DejaVuSans-112"/>
      <use x="177.099609" xlink:href="#DejaVuSans-97"/>
      <use x="238.378906" xlink:href="#DejaVuSans-108"/>
      <use x="266.162109" xlink:href="#DejaVuSans-32"/>
      <use x="297.949219" xlink:href="#DejaVuSans-119"/>
      <use x="379.736328" xlink:href="#DejaVuSans-105"/>
      <use x="407.519531" xlink:href="#DejaVuSans-100"/>
      <use x="470.996094" xlink:href="#DejaVuSans-116"/>
      <use x="510.205078" xlink:href="#DejaVuSans-104"/>
      <use x="573.583984" xlink:href="#DejaVuSans-32"/>
      <use x="605.371094" xlink:href="#DejaVuSans-40"/>
      <use x="644.384766" xlink:href="#DejaVuSans-99"/>
      <use x="699.365234" xlink:href="#DejaVuSans-109"/>
      <use x="796.777344" xlink:href="#DejaVuSans-41"/>
     </g>
    </g>
   </g>
   <g id="matplotlib.axis_4">
    <g id="ytick_7">
     <g id="line2d_27">
      <g>
       <use style="stroke:#000000;stroke-width:0.8;" x="315.350598" xlink:href="#m7af37dfbe4" y="197.94644"/>
      </g>
     </g>
     <g id="text_24">
      <!-- −0.004 -->
      <defs>
       <path d="M 37.796875 64.3125 
L 12.890625 25.390625 
L 37.796875 25.390625 
z
M 35.203125 72.90625 
L 47.609375 72.90625 
L 47.609375 25.390625 
L 58.015625 25.390625 
L 58.015625 17.1875 
L 47.609375 17.1875 
L 47.609375 0 
L 37.796875 0 
L 37.796875 17.1875 
L 4.890625 17.1875 
L 4.890625 26.703125 
z
" id="DejaVuSans-52"/>
      </defs>
      <g transform="translate(271.342785 201.745658)scale(0.1 -0.1)">
       <use xlink:href="#DejaVuSans-8722"/>
       <use x="83.789062" xlink:href="#DejaVuSans-48"/>
       <use x="147.412109" xlink:href="#DejaVuSans-46"/>
       <use x="179.199219" xlink:href="#DejaVuSans-48"/>
       <use x="242.822266" xlink:href="#DejaVuSans-48"/>
       <use x="306.445312" xlink:href="#DejaVuSans-52"/>
      </g>
     </g>
    </g>
    <g id="ytick_8">
     <g id="line2d_28">
      <g>
       <use style="stroke:#000000;stroke-width:0.8;" x="315.350598" xlink:href="#m7af37dfbe4" y="153.167931"/>
      </g>
     </g>
     <g id="text_25">
      <!-- −0.003 -->
      <g transform="translate(271.342785 156.96715)scale(0.1 -0.1)">
       <use xlink:href="#DejaVuSans-8722"/>
       <use x="83.789062" xlink:href="#DejaVuSans-48"/>
       <use x="147.412109" xlink:href="#DejaVuSans-46"/>
       <use x="179.199219" xlink:href="#DejaVuSans-48"/>
       <use x="242.822266" xlink:href="#DejaVuSans-48"/>
       <use x="306.445312" xlink:href="#DejaVuSans-51"/>
      </g>
     </g>
    </g>
    <g id="ytick_9">
     <g id="line2d_29">
      <g>
       <use style="stroke:#000000;stroke-width:0.8;" x="315.350598" xlink:href="#m7af37dfbe4" y="108.389423"/>
      </g>
     </g>
     <g id="text_26">
      <!-- −0.002 -->
      <g transform="translate(271.342785 112.188641)scale(0.1 -0.1)">
       <use xlink:href="#DejaVuSans-8722"/>
       <use x="83.789062" xlink:href="#DejaVuSans-48"/>
       <use x="147.412109" xlink:href="#DejaVuSans-46"/>
       <use x="179.199219" xlink:href="#DejaVuSans-48"/>
       <use x="242.822266" xlink:href="#DejaVuSans-48"/>
       <use x="306.445312" xlink:href="#DejaVuSans-50"/>
      </g>
     </g>
    </g>
    <g id="ytick_10">
     <g id="line2d_30">
      <g>
       <use style="stroke:#000000;stroke-width:0.8;" x="315.350598" xlink:href="#m7af37dfbe4" y="63.610914"/>
      </g>
     </g>
     <g id="text_27">
      <!-- −0.001 -->
      <g transform="translate(271.342785 67.410133)scale(0.1 -0.1)">
       <use xlink:href="#DejaVuSans-8722"/>
       <use x="83.789062" xlink:href="#DejaVuSans-48"/>
       <use x="147.412109" xlink:href="#DejaVuSans-46"/>
       <use x="179.199219" xlink:href="#DejaVuSans-48"/>
       <use x="242.822266" xlink:href="#DejaVuSans-48"/>
       <use x="306.445312" xlink:href="#DejaVuSans-49"/>
      </g>
     </g>
    </g>
    <g id="ytick_11">
     <g id="line2d_31">
      <g>
       <use style="stroke:#000000;stroke-width:0.8;" x="315.350598" xlink:href="#m7af37dfbe4" y="18.832406"/>
      </g>
     </g>
     <g id="text_28">
      <!-- 0.000 -->
      <g transform="translate(279.722473 22.631625)scale(0.1 -0.1)">
       <use xlink:href="#DejaVuSans-48"/>
       <use x="63.623047" xlink:href="#DejaVuSans-46"/>
       <use x="95.410156" xlink:href="#DejaVuSans-48"/>
       <use x="159.033203" xlink:href="#DejaVuSans-48"/>
       <use x="222.65625" xlink:href="#DejaVuSans-48"/>
      </g>
     </g>
    </g>
   </g>
   <g id="line2d_32">
    <path clip-path="url(#p9fba564d0d)" d="M 324.172732 28.478715 
L 325.954982 28.642586 
L 327.737231 28.808329 
L 329.51948 28.975948 
L 331.30173 29.145466 
L 333.083979 29.316881 
L 334.866228 29.490211 
L 336.648478 29.665469 
L 338.430727 29.842657 
L 340.212977 30.021795 
L 341.995226 30.202889 
L 343.777475 30.38596 
L 345.559725 30.571003 
L 347.341974 30.758039 
L 349.124223 30.947077 
L 350.906473 31.138127 
L 352.688722 31.331202 
L 354.470972 31.526312 
L 356.253221 31.723467 
L 358.03547 31.92268 
L 359.81772 32.123963 
L 361.599969 32.327321 
L 363.382218 32.532771 
L 365.164468 32.740324 
L 366.946717 32.94999 
L 368.728966 33.161777 
L 370.511216 33.375694 
L 372.293465 33.591761 
L 374.075715 33.809983 
L 375.857964 34.030372 
L 377.640213 34.252944 
L 379.422463 34.477701 
L 381.204712 34.704654 
L 382.986961 34.933831 
L 384.769211 35.165223 
L 386.55146 35.398845 
L 388.33371 35.634716 
L 390.115959 35.872844 
L 391.898208 36.113238 
L 393.680458 36.355913 
L 395.462707 36.600874 
L 397.244956 36.848126 
L 399.027206 37.097696 
L 400.809455 37.349593 
L 402.591705 37.603817 
L 404.373954 37.860392 
L 406.156203 38.119318 
L 407.938453 38.380614 
L 409.720702 38.644279 
L 411.502951 38.910342 
L 413.285201 39.178792 
L 415.06745 39.449666 
L 416.8497 39.722947 
L 418.631949 39.998675 
L 420.414198 40.276836 
L 422.196448 40.557457 
L 423.978697 40.840543 
L 425.760946 41.126109 
L 427.543196 41.41415 
L 429.325445 41.704698 
L 431.107694 41.997766 
L 432.889944 42.293334 
L 434.672193 42.591452 
L 436.454443 42.892104 
L 438.236692 43.195307 
L 440.018941 43.501087 
L 441.801191 43.809439 
L 443.58344 44.120376 
L 445.365689 44.433908 
L 447.147939 44.75005 
L 448.930188 45.068822 
L 450.712438 45.390217 
L 452.494687 45.714245 
L 454.276936 46.040929 
L 456.059186 46.370299 
L 457.841435 46.702322 
L 459.623684 47.037034 
L 461.405934 47.374465 
L 463.188183 47.714582 
L 464.970433 48.057408 
L 466.752682 48.403001 
L 468.534931 48.751303 
L 470.317181 49.102367 
L 472.09943 49.456187 
L 473.881679 49.812795 
L 475.663929 50.17219 
L 477.446178 50.534368 
L 479.228428 50.899357 
L 481.010677 51.267182 
L 482.792926 51.637816 
L 484.575176 52.011282 
L 486.357425 52.387653 
L 488.139674 52.766813 
L 489.921924 53.148899 
L 491.704173 53.533843 
L 493.486422 53.921681 
L 495.268672 54.312426 
L 497.050921 54.706097 
L 498.833171 55.102687 
L 500.61542 55.502217 
" style="fill:none;stroke:#1f77b4;stroke-linecap:square;stroke-width:1.5;"/>
   </g>
   <g id="line2d_33">
    <path clip-path="url(#p9fba564d0d)" d="M 324.172732 214.756364 
L 325.954982 213.988805 
L 327.737231 213.228355 
L 329.51948 212.474896 
L 331.30173 211.728365 
L 333.083979 210.988633 
L 334.866228 210.255628 
L 336.648478 209.529207 
L 338.430727 208.809289 
L 340.212977 208.095849 
L 341.995226 207.388711 
L 343.777475 206.687848 
L 345.559725 205.993136 
L 347.341974 205.304505 
L 349.124223 204.621843 
L 350.906473 203.945095 
L 352.688722 203.274206 
L 354.470972 202.609034 
L 356.253221 201.94956 
L 358.03547 201.295657 
L 359.81772 200.647292 
L 361.599969 200.004385 
L 363.382218 199.366849 
L 365.164468 198.734619 
L 366.946717 198.107601 
L 368.728966 197.485784 
L 370.511216 196.869041 
L 372.293465 196.25734 
L 374.075715 195.650607 
L 375.857964 195.048772 
L 377.640213 194.451811 
L 379.422463 193.859616 
L 381.204712 193.272115 
L 382.986961 192.689332 
L 384.769211 192.111122 
L 386.55146 191.537439 
L 388.33371 190.968285 
L 390.115959 190.403553 
L 391.898208 189.84319 
L 393.680458 189.287166 
L 395.462707 188.735411 
L 397.244956 188.187856 
L 399.027206 187.644487 
L 400.809455 187.105266 
L 402.591705 186.570089 
L 404.373954 186.038966 
L 406.156203 185.511795 
L 407.938453 184.988553 
L 409.720702 184.469192 
L 411.502951 183.953695 
L 413.285201 183.44195 
L 415.06745 182.933984 
L 416.8497 182.429711 
L 418.631949 181.929117 
L 420.414198 181.432128 
L 422.196448 180.938708 
L 423.978697 180.448852 
L 425.760946 179.962501 
L 427.543196 179.479586 
L 429.325445 179.000084 
L 431.107694 178.523992 
L 432.889944 178.051219 
L 434.672193 177.581777 
L 436.454443 177.115605 
L 438.236692 176.652657 
L 440.018941 176.192918 
L 441.801191 175.73633 
L 443.58344 175.282889 
L 445.365689 174.832557 
L 447.147939 174.385255 
L 448.930188 173.941007 
L 450.712438 173.499754 
L 452.494687 173.061458 
L 454.276936 172.626084 
L 456.059186 172.193647 
L 457.841435 171.764074 
L 459.623684 171.337337 
L 461.405934 170.913431 
L 463.188183 170.4923 
L 464.970433 170.073908 
L 466.752682 169.658261 
L 468.534931 169.245308 
L 470.317181 168.835038 
L 472.09943 168.427386 
L 473.881679 168.022364 
L 475.663929 167.619939 
L 477.446178 167.22008 
L 479.228428 166.822763 
L 481.010677 166.427949 
L 482.792926 166.035627 
L 484.575176 165.645759 
L 486.357425 165.258378 
L 488.139674 164.873356 
L 489.921924 164.490747 
L 491.704173 164.110497 
L 493.486422 163.732614 
L 495.268672 163.357007 
L 497.050921 162.98374 
L 498.833171 162.612759 
L 500.61542 162.244007 
" style="fill:none;stroke:#ff7f0e;stroke-linecap:square;stroke-width:1.5;"/>
   </g>
   <g id="line2d_34">
    <path clip-path="url(#p9fba564d0d)" d="M 324.172732 18.429582 
L 325.954982 18.422056 
L 327.737231 18.414432 
L 329.51948 18.406709 
L 331.30173 18.398885 
L 333.083979 18.390961 
L 334.866228 18.382935 
L 336.648478 18.374807 
L 338.430727 18.366575 
L 340.212977 18.35824 
L 341.995226 18.349801 
L 343.777475 18.341255 
L 345.559725 18.332604 
L 347.341974 18.323846 
L 349.124223 18.31498 
L 350.906473 18.306006 
L 352.688722 18.296923 
L 354.470972 18.28773 
L 356.253221 18.278426 
L 358.03547 18.26901 
L 359.81772 18.259482 
L 361.599969 18.249842 
L 363.382218 18.240087 
L 365.164468 18.230218 
L 366.946717 18.220233 
L 368.728966 18.210133 
L 370.511216 18.199915 
L 372.293465 18.18958 
L 374.075715 18.179126 
L 375.857964 18.168553 
L 377.640213 18.15786 
L 379.422463 18.147046 
L 381.204712 18.136111 
L 382.986961 18.125053 
L 384.769211 18.113871 
L 386.55146 18.102566 
L 388.33371 18.091136 
L 390.115959 18.07958 
L 391.898208 18.067898 
L 393.680458 18.056089 
L 395.462707 18.044151 
L 397.244956 18.032085 
L 399.027206 18.01989 
L 400.809455 18.007563 
L 402.591705 17.995106 
L 404.373954 17.982516 
L 406.156203 17.969794 
L 407.938453 17.956937 
L 409.720702 17.943947 
L 411.502951 17.930821 
L 413.285201 17.917559 
L 415.06745 17.90416 
L 416.8497 17.890624 
L 418.631949 17.876948 
L 420.414198 17.863134 
L 422.196448 17.849179 
L 423.978697 17.835083 
L 425.760946 17.820845 
L 427.543196 17.806465 
L 429.325445 17.791941 
L 431.107694 17.777272 
L 432.889944 17.762459 
L 434.672193 17.7475 
L 436.454443 17.732393 
L 438.236692 17.71714 
L 440.018941 17.701737 
L 441.801191 17.686185 
L 443.58344 17.670483 
L 445.365689 17.65463 
L 447.147939 17.638625 
L 448.930188 17.622467 
L 450.712438 17.606156 
L 452.494687 17.589691 
L 454.276936 17.57307 
L 456.059186 17.556293 
L 457.841435 17.539359 
L 459.623684 17.522268 
L 461.405934 17.505017 
L 463.188183 17.487607 
L 464.970433 17.470038 
L 466.752682 17.452305 
L 468.534931 17.434412 
L 470.317181 17.416356 
L 472.09943 17.398137 
L 473.881679 17.379752 
L 475.663929 17.361201 
L 477.446178 17.342485 
L 479.228428 17.323601 
L 481.010677 17.304549 
L 482.792926 17.285328 
L 484.575176 17.265938 
L 486.357425 17.246375 
L 488.139674 17.226643 
L 489.921924 17.206737 
L 491.704173 17.186659 
L 493.486422 17.166406 
L 495.268672 17.145979 
L 497.050921 17.125375 
L 498.833171 17.104594 
L 500.61542 17.083636 
" style="fill:none;stroke:#2ca02c;stroke-linecap:square;stroke-width:1.5;"/>
   </g>
   <g id="patch_9">
    <path d="M 315.350598 224.64 
L 315.350598 7.2 
" style="fill:none;stroke:#000000;stroke-linecap:square;stroke-linejoin:miter;stroke-width:0.8;"/>
   </g>
   <g id="patch_10">
    <path d="M 509.437554 224.64 
L 509.437554 7.2 
" style="fill:none;stroke:#000000;stroke-linecap:square;stroke-linejoin:miter;stroke-width:0.8;"/>
   </g>
   <g id="patch_11">
    <path d="M 315.350598 224.64 
L 509.437554 224.64 
" style="fill:none;stroke:#000000;stroke-linecap:square;stroke-linejoin:miter;stroke-width:0.8;"/>
   </g>
   <g id="patch_12">
    <path d="M 315.350598 7.2 
L 509.437554 7.2 
" style="fill:none;stroke:#000000;stroke-linecap:square;stroke-linejoin:miter;stroke-width:0.8;"/>
   </g>
   <g id="legend_2">
    <g id="patch_13">
     <path d="M 421.642242 139.437187 
L 502.437554 139.437187 
Q 504.437554 139.437187 504.437554 137.437187 
L 504.437554 94.402812 
Q 504.437554 92.402812 502.437554 92.402812 
L 421.642242 92.402812 
Q 419.642242 92.402812 419.642242 94.402812 
L 419.642242 137.437187 
Q 419.642242 139.437187 421.642242 139.437187 
z
" style="fill:#ffffff;opacity:0.8;stroke:#cccccc;stroke-linejoin:miter;"/>
    </g>
    <g id="line2d_35">
     <path d="M 423.642242 100.50125 
L 443.642242 100.50125 
" style="fill:none;stroke:#1f77b4;stroke-linecap:square;stroke-width:1.5;"/>
    </g>
    <g id="line2d_36"/>
    <g id="text_29">
     <!-- setosa -->
     <g transform="translate(451.642242 104.00125)scale(0.1 -0.1)">
      <use xlink:href="#DejaVuSans-115"/>
      <use x="52.099609" xlink:href="#DejaVuSans-101"/>
      <use x="113.623047" xlink:href="#DejaVuSans-116"/>
      <use x="152.832031" xlink:href="#DejaVuSans-111"/>
      <use x="214.013672" xlink:href="#DejaVuSans-115"/>
      <use x="266.113281" xlink:href="#DejaVuSans-97"/>
     </g>
    </g>
    <g id="line2d_37">
     <path d="M 423.642242 115.179375 
L 443.642242 115.179375 
" style="fill:none;stroke:#ff7f0e;stroke-linecap:square;stroke-width:1.5;"/>
    </g>
    <g id="line2d_38"/>
    <g id="text_30">
     <!-- versicolor -->
     <g transform="translate(451.642242 118.679375)scale(0.1 -0.1)">
      <use xlink:href="#DejaVuSans-118"/>
      <use x="59.179688" xlink:href="#DejaVuSans-101"/>
      <use x="120.703125" xlink:href="#DejaVuSans-114"/>
      <use x="161.816406" xlink:href="#DejaVuSans-115"/>
      <use x="213.916016" xlink:href="#DejaVuSans-105"/>
      <use x="241.699219" xlink:href="#DejaVuSans-99"/>
      <use x="296.679688" xlink:href="#DejaVuSans-111"/>
      <use x="357.861328" xlink:href="#DejaVuSans-108"/>
      <use x="385.644531" xlink:href="#DejaVuSans-111"/>
      <use x="446.826172" xlink:href="#DejaVuSans-114"/>
     </g>
    </g>
    <g id="line2d_39">
     <path d="M 423.642242 129.8575 
L 443.642242 129.8575 
" style="fill:none;stroke:#2ca02c;stroke-linecap:square;stroke-width:1.5;"/>
    </g>
    <g id="line2d_40"/>
    <g id="text_31">
     <!-- virginica -->
     <g transform="translate(451.642242 133.3575)scale(0.1 -0.1)">
      <use xlink:href="#DejaVuSans-118"/>
      <use x="59.179688" xlink:href="#DejaVuSans-105"/>
      <use x="86.962891" xlink:href="#DejaVuSans-114"/>
      <use x="126.326172" xlink:href="#DejaVuSans-103"/>
      <use x="189.802734" xlink:href="#DejaVuSans-105"/>
      <use x="217.585938" xlink:href="#DejaVuSans-110"/>
      <use x="280.964844" xlink:href="#DejaVuSans-105"/>
      <use x="308.748047" xlink:href="#DejaVuSans-99"/>
      <use x="363.728516" xlink:href="#DejaVuSans-97"/>
     </g>
    </g>
   </g>
  </g>
  <g id="axes_3">
   <g id="patch_14">
    <path d="M 548.254946 224.64 
L 742.341902 224.64 
L 742.341902 7.2 
L 548.254946 7.2 
z
" style="fill:#ffffff;"/>
   </g>
   <g id="matplotlib.axis_5">
    <g id="xtick_12">
     <g id="line2d_41">
      <g>
       <use style="stroke:#000000;stroke-width:0.8;" x="583.299985" xlink:href="#m6cff1dfd55" y="224.64"/>
      </g>
     </g>
     <g id="text_32">
      <!-- 2 -->
      <g transform="translate(580.118735 239.238437)scale(0.1 -0.1)">
       <use xlink:href="#DejaVuSans-50"/>
      </g>
     </g>
    </g>
    <g id="xtick_13">
     <g id="line2d_42">
      <g>
       <use style="stroke:#000000;stroke-width:0.8;" x="620.761277" xlink:href="#m6cff1dfd55" y="224.64"/>
      </g>
     </g>
     <g id="text_33">
      <!-- 3 -->
      <g transform="translate(617.580027 239.238437)scale(0.1 -0.1)">
       <use xlink:href="#DejaVuSans-51"/>
      </g>
     </g>
    </g>
    <g id="xtick_14">
     <g id="line2d_43">
      <g>
       <use style="stroke:#000000;stroke-width:0.8;" x="658.22257" xlink:href="#m6cff1dfd55" y="224.64"/>
      </g>
     </g>
     <g id="text_34">
      <!-- 4 -->
      <g transform="translate(655.04132 239.238437)scale(0.1 -0.1)">
       <use xlink:href="#DejaVuSans-52"/>
      </g>
     </g>
    </g>
    <g id="xtick_15">
     <g id="line2d_44">
      <g>
       <use style="stroke:#000000;stroke-width:0.8;" x="695.683862" xlink:href="#m6cff1dfd55" y="224.64"/>
      </g>
     </g>
     <g id="text_35">
      <!-- 5 -->
      <g transform="translate(692.502612 239.238437)scale(0.1 -0.1)">
       <use xlink:href="#DejaVuSans-53"/>
      </g>
     </g>
    </g>
    <g id="xtick_16">
     <g id="line2d_45">
      <g>
       <use style="stroke:#000000;stroke-width:0.8;" x="733.145155" xlink:href="#m6cff1dfd55" y="224.64"/>
      </g>
     </g>
     <g id="text_36">
      <!-- 6 -->
      <g transform="translate(729.963905 239.238437)scale(0.1 -0.1)">
       <use xlink:href="#DejaVuSans-54"/>
      </g>
     </g>
    </g>
    <g id="text_37">
     <!-- petal length (cm) -->
     <g transform="translate(601.997643 252.916562)scale(0.1 -0.1)">
      <use xlink:href="#DejaVuSans-112"/>
      <use x="63.476562" xlink:href="#DejaVuSans-101"/>
      <use x="125" xlink:href="#DejaVuSans-116"/>
      <use x="164.208984" xlink:href="#DejaVuSans-97"/>
      <use x="225.488281" xlink:href="#DejaVuSans-108"/>
      <use x="253.271484" xlink:href="#DejaVuSans-32"/>
      <use x="285.058594" xlink:href="#DejaVuSans-108"/>
      <use x="312.841797" xlink:href="#DejaVuSans-101"/>
      <use x="374.365234" xlink:href="#DejaVuSans-110"/>
      <use x="437.744141" xlink:href="#DejaVuSans-103"/>
      <use x="501.220703" xlink:href="#DejaVuSans-116"/>
      <use x="540.429688" xlink:href="#DejaVuSans-104"/>
      <use x="603.808594" xlink:href="#DejaVuSans-32"/>
      <use x="635.595703" xlink:href="#DejaVuSans-40"/>
      <use x="674.609375" xlink:href="#DejaVuSans-99"/>
      <use x="729.589844" xlink:href="#DejaVuSans-109"/>
      <use x="827.001953" xlink:href="#DejaVuSans-41"/>
     </g>
    </g>
   </g>
   <g id="matplotlib.axis_6">
    <g id="ytick_12">
     <g id="line2d_46">
      <g>
       <use style="stroke:#000000;stroke-width:0.8;" x="548.254946" xlink:href="#m7af37dfbe4" y="222.190386"/>
      </g>
     </g>
     <g id="text_38">
      <!-- −0.08 -->
      <defs>
       <path d="M 31.78125 34.625 
Q 24.75 34.625 20.71875 30.859375 
Q 16.703125 27.09375 16.703125 20.515625 
Q 16.703125 13.921875 20.71875 10.15625 
Q 24.75 6.390625 31.78125 6.390625 
Q 38.8125 6.390625 42.859375 10.171875 
Q 46.921875 13.96875 46.921875 20.515625 
Q 46.921875 27.09375 42.890625 30.859375 
Q 38.875 34.625 31.78125 34.625 
z
M 21.921875 38.8125 
Q 15.578125 40.375 12.03125 44.71875 
Q 8.5 49.078125 8.5 55.328125 
Q 8.5 64.0625 14.71875 69.140625 
Q 20.953125 74.21875 31.78125 74.21875 
Q 42.671875 74.21875 48.875 69.140625 
Q 55.078125 64.0625 55.078125 55.328125 
Q 55.078125 49.078125 51.53125 44.71875 
Q 48 40.375 41.703125 38.8125 
Q 48.828125 37.15625 52.796875 32.3125 
Q 56.78125 27.484375 56.78125 20.515625 
Q 56.78125 9.90625 50.3125 4.234375 
Q 43.84375 -1.421875 31.78125 -1.421875 
Q 19.734375 -1.421875 13.25 4.234375 
Q 6.78125 9.90625 6.78125 20.515625 
Q 6.78125 27.484375 10.78125 32.3125 
Q 14.796875 37.15625 21.921875 38.8125 
z
M 18.3125 54.390625 
Q 18.3125 48.734375 21.84375 45.5625 
Q 25.390625 42.390625 31.78125 42.390625 
Q 38.140625 42.390625 41.71875 45.5625 
Q 45.3125 48.734375 45.3125 54.390625 
Q 45.3125 60.0625 41.71875 63.234375 
Q 38.140625 66.40625 31.78125 66.40625 
Q 25.390625 66.40625 21.84375 63.234375 
Q 18.3125 60.0625 18.3125 54.390625 
z
" id="DejaVuSans-56"/>
      </defs>
      <g transform="translate(510.609633 225.989605)scale(0.1 -0.1)">
       <use xlink:href="#DejaVuSans-8722"/>
       <use x="83.789062" xlink:href="#DejaVuSans-48"/>
       <use x="147.412109" xlink:href="#DejaVuSans-46"/>
       <use x="179.199219" xlink:href="#DejaVuSans-48"/>
       <use x="242.822266" xlink:href="#DejaVuSans-56"/>
      </g>
     </g>
    </g>
    <g id="ytick_13">
     <g id="line2d_47">
      <g>
       <use style="stroke:#000000;stroke-width:0.8;" x="548.254946" xlink:href="#m7af37dfbe4" y="175.044684"/>
      </g>
     </g>
     <g id="text_39">
      <!-- −0.06 -->
      <g transform="translate(510.609633 178.843903)scale(0.1 -0.1)">
       <use xlink:href="#DejaVuSans-8722"/>
       <use x="83.789062" xlink:href="#DejaVuSans-48"/>
       <use x="147.412109" xlink:href="#DejaVuSans-46"/>
       <use x="179.199219" xlink:href="#DejaVuSans-48"/>
       <use x="242.822266" xlink:href="#DejaVuSans-54"/>
      </g>
     </g>
    </g>
    <g id="ytick_14">
     <g id="line2d_48">
      <g>
       <use style="stroke:#000000;stroke-width:0.8;" x="548.254946" xlink:href="#m7af37dfbe4" y="127.898983"/>
      </g>
     </g>
     <g id="text_40">
      <!-- −0.04 -->
      <g transform="translate(510.609633 131.698201)scale(0.1 -0.1)">
       <use xlink:href="#DejaVuSans-8722"/>
       <use x="83.789062" xlink:href="#DejaVuSans-48"/>
       <use x="147.412109" xlink:href="#DejaVuSans-46"/>
       <use x="179.199219" xlink:href="#DejaVuSans-48"/>
       <use x="242.822266" xlink:href="#DejaVuSans-52"/>
      </g>
     </g>
    </g>
    <g id="ytick_15">
     <g id="line2d_49">
      <g>
       <use style="stroke:#000000;stroke-width:0.8;" x="548.254946" xlink:href="#m7af37dfbe4" y="80.753281"/>
      </g>
     </g>
     <g id="text_41">
      <!-- −0.02 -->
      <g transform="translate(510.609633 84.5525)scale(0.1 -0.1)">
       <use xlink:href="#DejaVuSans-8722"/>
       <use x="83.789062" xlink:href="#DejaVuSans-48"/>
       <use x="147.412109" xlink:href="#DejaVuSans-46"/>
       <use x="179.199219" xlink:href="#DejaVuSans-48"/>
       <use x="242.822266" xlink:href="#DejaVuSans-50"/>
      </g>
     </g>
    </g>
    <g id="ytick_16">
     <g id="line2d_50">
      <g>
       <use style="stroke:#000000;stroke-width:0.8;" x="548.254946" xlink:href="#m7af37dfbe4" y="33.607579"/>
      </g>
     </g>
     <g id="text_42">
      <!-- 0.00 -->
      <g transform="translate(518.989321 37.406798)scale(0.1 -0.1)">
       <use xlink:href="#DejaVuSans-48"/>
       <use x="63.623047" xlink:href="#DejaVuSans-46"/>
       <use x="95.410156" xlink:href="#DejaVuSans-48"/>
       <use x="159.033203" xlink:href="#DejaVuSans-48"/>
      </g>
     </g>
    </g>
   </g>
   <g id="line2d_51">
    <path clip-path="url(#p56ecdf1897)" d="M 557.07708 35.727857 
L 558.859329 35.976398 
L 560.641579 36.243877 
L 562.423828 36.531009 
L 564.206078 36.838508 
L 565.988327 37.167084 
L 567.770576 37.51745 
L 569.552826 37.890317 
L 571.335075 38.28639 
L 573.117324 38.706379 
L 574.899574 39.150984 
L 576.681823 39.620902 
L 578.464072 40.116828 
L 580.246322 40.639464 
L 582.028571 41.189483 
L 583.810821 41.76757 
L 585.59307 42.374409 
L 587.375319 43.010654 
L 589.157569 43.676976 
L 590.939818 44.374016 
L 592.722067 45.102439 
L 594.504317 45.862859 
L 596.286566 46.655928 
L 598.068816 47.482222 
L 599.851065 48.342388 
L 601.633314 49.236983 
L 603.415564 50.166586 
L 605.197813 51.131787 
L 606.980062 52.133089 
L 608.762312 53.171076 
L 610.544561 54.246227 
L 612.326811 55.359036 
L 614.10906 56.509995 
L 615.891309 57.699582 
L 617.673559 58.928182 
L 619.455808 60.196273 
L 621.238057 61.504185 
L 623.020307 62.852316 
L 624.802556 64.241028 
L 626.584806 65.670581 
L 628.367055 67.141314 
L 630.149304 68.653448 
L 631.931554 70.207248 
L 633.713803 71.802889 
L 635.496052 73.440545 
L 637.278302 75.120331 
L 639.060551 76.842351 
L 640.8428 78.606682 
L 642.62505 80.413347 
L 644.407299 82.262349 
L 646.189549 84.153561 
L 647.971798 86.086962 
L 649.754047 88.062381 
L 651.536297 90.079688 
L 653.318546 92.138581 
L 655.100795 94.23886 
L 656.883045 96.380236 
L 658.665294 98.562264 
L 660.447544 100.784577 
L 662.229793 103.046737 
L 664.012042 105.348231 
L 665.794292 107.688508 
L 667.576541 110.067026 
L 669.35879 112.482975 
L 671.14104 114.93584 
L 672.923289 117.424746 
L 674.705539 119.948857 
L 676.487788 122.507422 
L 678.270037 125.099488 
L 680.052287 127.724048 
L 681.834536 130.380105 
L 683.616785 133.066476 
L 685.399035 135.782304 
L 687.181284 138.526189 
L 688.963534 141.296935 
L 690.745783 144.093328 
L 692.528032 146.913952 
L 694.310282 149.757472 
L 696.092531 152.622472 
L 697.87478 155.507359 
L 699.65703 158.410796 
L 701.439279 161.331122 
L 703.221528 164.266671 
L 705.003778 167.215785 
L 706.786027 170.176735 
L 708.568277 173.147926 
L 710.350526 176.127505 
L 712.132775 179.113581 
L 713.915025 182.104368 
L 715.697274 185.097996 
L 717.479523 188.092531 
L 719.261773 191.085858 
L 721.044022 194.0764 
L 722.826272 197.061879 
L 724.608521 200.04033 
L 726.39077 203.009769 
L 728.17302 205.968153 
L 729.955269 208.913428 
L 731.737518 211.843566 
L 733.519768 214.756364 
" style="fill:none;stroke:#1f77b4;stroke-linecap:square;stroke-width:1.5;"/>
   </g>
   <g id="line2d_52">
    <path clip-path="url(#p56ecdf1897)" d="M 557.07708 54.526559 
L 558.859329 53.991878 
L 560.641579 53.488544 
L 562.423828 53.013743 
L 564.206078 52.565 
L 565.988327 52.140121 
L 567.770576 51.737154 
L 569.552826 51.354364 
L 571.335075 50.990198 
L 573.117324 50.643262 
L 574.899574 50.3123 
L 576.681823 49.996176 
L 578.464072 49.693866 
L 580.246322 49.404441 
L 582.028571 49.12705 
L 583.810821 48.860921 
L 585.59307 48.605348 
L 587.375319 48.359681 
L 589.157569 48.123326 
L 590.939818 47.895739 
L 592.722067 47.676416 
L 594.504317 47.464891 
L 596.286566 47.260736 
L 598.068816 47.063549 
L 599.851065 46.872966 
L 601.633314 46.68864 
L 603.415564 46.510254 
L 605.197813 46.337511 
L 606.980062 46.170131 
L 608.762312 46.007859 
L 610.544561 45.850452 
L 612.326811 45.697681 
L 614.10906 45.549336 
L 615.891309 45.405217 
L 617.673559 45.265137 
L 619.455808 45.128919 
L 621.238057 44.996397 
L 623.020307 44.867417 
L 624.802556 44.74183 
L 626.584806 44.619496 
L 628.367055 44.500286 
L 630.149304 44.384074 
L 631.931554 44.270743 
L 633.713803 44.160182 
L 635.496052 44.052284 
L 637.278302 43.946952 
L 639.060551 43.844088 
L 640.8428 43.743604 
L 642.62505 43.645412 
L 644.407299 43.549433 
L 646.189549 43.455586 
L 647.971798 43.363799 
L 649.754047 43.274001 
L 651.536297 43.186125 
L 653.318546 43.100107 
L 655.100795 43.015886 
L 656.883045 42.933402 
L 658.665294 42.852599 
L 660.447544 42.773424 
L 662.229793 42.695826 
L 664.012042 42.619756 
L 665.794292 42.545167 
L 667.576541 42.472015 
L 669.35879 42.400253 
L 671.14104 42.329845 
L 672.923289 42.260746 
L 674.705539 42.192921 
L 676.487788 42.126334 
L 678.270037 42.060946 
L 680.052287 41.996727 
L 681.834536 41.933642 
L 683.616785 41.87166 
L 685.399035 41.810751 
L 687.181284 41.750888 
L 688.963534 41.69204 
L 690.745783 41.634181 
L 692.528032 41.577285 
L 694.310282 41.521328 
L 696.092531 41.466284 
L 697.87478 41.41213 
L 699.65703 41.358845 
L 701.439279 41.306406 
L 703.221528 41.254792 
L 705.003778 41.203983 
L 706.786027 41.153958 
L 708.568277 41.104701 
L 710.350526 41.056191 
L 712.132775 41.00841 
L 713.915025 40.961344 
L 715.697274 40.914972 
L 717.479523 40.869282 
L 719.261773 40.824254 
L 721.044022 40.779877 
L 722.826272 40.736134 
L 724.608521 40.693012 
L 726.39077 40.650497 
L 728.17302 40.608573 
L 729.955269 40.567231 
L 731.737518 40.526457 
L 733.519768 40.486237 
" style="fill:none;stroke:#ff7f0e;stroke-linecap:square;stroke-width:1.5;"/>
   </g>
   <g id="line2d_53">
    <path clip-path="url(#p56ecdf1897)" d="M 557.07708 33.513755 
L 558.859329 33.501597 
L 560.641579 33.488368 
L 562.423828 33.474017 
L 564.206078 33.458488 
L 565.988327 33.441729 
L 567.770576 33.423684 
L 569.552826 33.404297 
L 571.335075 33.383513 
L 573.117324 33.361274 
L 574.899574 33.337523 
L 576.681823 33.312202 
L 578.464072 33.285252 
L 580.246322 33.256615 
L 582.028571 33.22623 
L 583.810821 33.194036 
L 585.59307 33.159974 
L 587.375319 33.123981 
L 589.157569 33.085996 
L 590.939818 33.045956 
L 592.722067 33.003798 
L 594.504317 32.959459 
L 596.286566 32.912873 
L 598.068816 32.863979 
L 599.851065 32.812709 
L 601.633314 32.758999 
L 603.415564 32.702784 
L 605.197813 32.643996 
L 606.980062 32.582571 
L 608.762312 32.518438 
L 610.544561 32.451532 
L 612.326811 32.381786 
L 614.10906 32.309131 
L 615.891309 32.233496 
L 617.673559 32.154816 
L 619.455808 32.073018 
L 621.238057 31.988035 
L 623.020307 31.899797 
L 624.802556 31.808232 
L 626.584806 31.713272 
L 628.367055 31.614843 
L 630.149304 31.512878 
L 631.931554 31.407301 
L 633.713803 31.298044 
L 635.496052 31.185033 
L 637.278302 31.068199 
L 639.060551 30.947467 
L 640.8428 30.822765 
L 642.62505 30.694021 
L 644.407299 30.56116 
L 646.189549 30.424115 
L 647.971798 30.282807 
L 649.754047 30.137167 
L 651.536297 29.987117 
L 653.318546 29.832591 
L 655.100795 29.67351 
L 656.883045 29.5098 
L 658.665294 29.341393 
L 660.447544 29.168214 
L 662.229793 28.990187 
L 664.012042 28.807242 
L 665.794292 28.619303 
L 667.576541 28.426295 
L 669.35879 28.228156 
L 671.14104 28.024798 
L 672.923289 27.816158 
L 674.705539 27.602166 
L 676.487788 27.38274 
L 678.270037 27.157812 
L 680.052287 26.927313 
L 681.834536 26.69117 
L 683.616785 26.449321 
L 685.399035 26.201672 
L 687.181284 25.948171 
L 688.963534 25.688747 
L 690.745783 25.423322 
L 692.528032 25.151835 
L 694.310282 24.874213 
L 696.092531 24.590387 
L 697.87478 24.300298 
L 699.65703 24.003863 
L 701.439279 23.701023 
L 703.221528 23.391716 
L 705.003778 23.075878 
L 706.786027 22.753445 
L 708.568277 22.42434 
L 710.350526 22.088507 
L 712.132775 21.745891 
L 713.915025 21.396424 
L 715.697274 21.040044 
L 717.479523 20.676693 
L 719.261773 20.306333 
L 721.044022 19.928863 
L 722.826272 19.544259 
L 724.608521 19.15246 
L 726.39077 18.753408 
L 728.17302 18.347049 
L 729.955269 17.933334 
L 731.737518 17.512207 
L 733.519768 17.083636 
" style="fill:none;stroke:#2ca02c;stroke-linecap:square;stroke-width:1.5;"/>
   </g>
   <g id="patch_15">
    <path d="M 548.254946 224.64 
L 548.254946 7.2 
" style="fill:none;stroke:#000000;stroke-linecap:square;stroke-linejoin:miter;stroke-width:0.8;"/>
   </g>
   <g id="patch_16">
    <path d="M 742.341902 224.64 
L 742.341902 7.2 
" style="fill:none;stroke:#000000;stroke-linecap:square;stroke-linejoin:miter;stroke-width:0.8;"/>
   </g>
   <g id="patch_17">
    <path d="M 548.254946 224.64 
L 742.341902 224.64 
" style="fill:none;stroke:#000000;stroke-linecap:square;stroke-linejoin:miter;stroke-width:0.8;"/>
   </g>
   <g id="patch_18">
    <path d="M 548.254946 7.2 
L 742.341902 7.2 
" style="fill:none;stroke:#000000;stroke-linecap:square;stroke-linejoin:miter;stroke-width:0.8;"/>
   </g>
   <g id="legend_3">
    <g id="patch_19">
     <path d="M 555.254946 219.64 
L 636.050258 219.64 
Q 638.050258 219.64 638.050258 217.64 
L 638.050258 174.605625 
Q 638.050258 172.605625 636.050258 172.605625 
L 555.254946 172.605625 
Q 553.254946 172.605625 553.254946 174.605625 
L 553.254946 217.64 
Q 553.254946 219.64 555.254946 219.64 
z
" style="fill:#ffffff;opacity:0.8;stroke:#cccccc;stroke-linejoin:miter;"/>
    </g>
    <g id="line2d_54">
     <path d="M 557.254946 180.704062 
L 577.254946 180.704062 
" style="fill:none;stroke:#1f77b4;stroke-linecap:square;stroke-width:1.5;"/>
    </g>
    <g id="line2d_55"/>
    <g id="text_43">
     <!-- setosa -->
     <g transform="translate(585.254946 184.204062)scale(0.1 -0.1)">
      <use xlink:href="#DejaVuSans-115"/>
      <use x="52.099609" xlink:href="#DejaVuSans-101"/>
      <use x="113.623047" xlink:href="#DejaVuSans-116"/>
      <use x="152.832031" xlink:href="#DejaVuSans-111"/>
      <use x="214.013672" xlink:href="#DejaVuSans-115"/>
      <use x="266.113281" xlink:href="#DejaVuSans-97"/>
     </g>
    </g>
    <g id="line2d_56">
     <path d="M 557.254946 195.382187 
L 577.254946 195.382187 
" style="fill:none;stroke:#ff7f0e;stroke-linecap:square;stroke-width:1.5;"/>
    </g>
    <g id="line2d_57"/>
    <g id="text_44">
     <!-- versicolor -->
     <g transform="translate(585.254946 198.882187)scale(0.1 -0.1)">
      <use xlink:href="#DejaVuSans-118"/>
      <use x="59.179688" xlink:href="#DejaVuSans-101"/>
      <use x="120.703125" xlink:href="#DejaVuSans-114"/>
      <use x="161.816406" xlink:href="#DejaVuSans-115"/>
      <use x="213.916016" xlink:href="#DejaVuSans-105"/>
      <use x="241.699219" xlink:href="#DejaVuSans-99"/>
      <use x="296.679688" xlink:href="#DejaVuSans-111"/>
      <use x="357.861328" xlink:href="#DejaVuSans-108"/>
      <use x="385.644531" xlink:href="#DejaVuSans-111"/>
      <use x="446.826172" xlink:href="#DejaVuSans-114"/>
     </g>
    </g>
    <g id="line2d_58">
     <path d="M 557.254946 210.060312 
L 577.254946 210.060312 
" style="fill:none;stroke:#2ca02c;stroke-linecap:square;stroke-width:1.5;"/>
    </g>
    <g id="line2d_59"/>
    <g id="text_45">
     <!-- virginica -->
     <g transform="translate(585.254946 213.560312)scale(0.1 -0.1)">
      <use xlink:href="#DejaVuSans-118"/>
      <use x="59.179688" xlink:href="#DejaVuSans-105"/>
      <use x="86.962891" xlink:href="#DejaVuSans-114"/>
      <use x="126.326172" xlink:href="#DejaVuSans-103"/>
      <use x="189.802734" xlink:href="#DejaVuSans-105"/>
      <use x="217.585938" xlink:href="#DejaVuSans-110"/>
      <use x="280.964844" xlink:href="#DejaVuSans-105"/>
      <use x="308.748047" xlink:href="#DejaVuSans-99"/>
      <use x="363.728516" xlink:href="#DejaVuSans-97"/>
     </g>
    </g>
   </g>
  </g>
  <g id="axes_4">
   <g id="patch_20">
    <path d="M 781.159293 224.64 
L 975.24625 224.64 
L 975.24625 7.2 
L 781.159293 7.2 
z
" style="fill:#ffffff;"/>
   </g>
   <g id="matplotlib.axis_7">
    <g id="xtick_17">
     <g id="line2d_60">
      <g>
       <use style="stroke:#000000;stroke-width:0.8;" x="819.047393" xlink:href="#m6cff1dfd55" y="224.64"/>
      </g>
     </g>
     <g id="text_46">
      <!-- 0.5 -->
      <g transform="translate(811.09583 239.238437)scale(0.1 -0.1)">
       <use xlink:href="#DejaVuSans-48"/>
       <use x="63.623047" xlink:href="#DejaVuSans-46"/>
       <use x="95.410156" xlink:href="#DejaVuSans-53"/>
      </g>
     </g>
    </g>
    <g id="xtick_18">
     <g id="line2d_61">
      <g>
       <use style="stroke:#000000;stroke-width:0.8;" x="859.985371" xlink:href="#m6cff1dfd55" y="224.64"/>
      </g>
     </g>
     <g id="text_47">
      <!-- 1.0 -->
      <g transform="translate(852.033809 239.238437)scale(0.1 -0.1)">
       <use xlink:href="#DejaVuSans-49"/>
       <use x="63.623047" xlink:href="#DejaVuSans-46"/>
       <use x="95.410156" xlink:href="#DejaVuSans-48"/>
      </g>
     </g>
    </g>
    <g id="xtick_19">
     <g id="line2d_62">
      <g>
       <use style="stroke:#000000;stroke-width:0.8;" x="900.92335" xlink:href="#m6cff1dfd55" y="224.64"/>
      </g>
     </g>
     <g id="text_48">
      <!-- 1.5 -->
      <g transform="translate(892.971787 239.238437)scale(0.1 -0.1)">
       <use xlink:href="#DejaVuSans-49"/>
       <use x="63.623047" xlink:href="#DejaVuSans-46"/>
       <use x="95.410156" xlink:href="#DejaVuSans-53"/>
      </g>
     </g>
    </g>
    <g id="xtick_20">
     <g id="line2d_63">
      <g>
       <use style="stroke:#000000;stroke-width:0.8;" x="941.861328" xlink:href="#m6cff1dfd55" y="224.64"/>
      </g>
     </g>
     <g id="text_49">
      <!-- 2.0 -->
      <g transform="translate(933.909766 239.238437)scale(0.1 -0.1)">
       <use xlink:href="#DejaVuSans-50"/>
       <use x="63.623047" xlink:href="#DejaVuSans-46"/>
       <use x="95.410156" xlink:href="#DejaVuSans-48"/>
      </g>
     </g>
    </g>
    <g id="text_50">
     <!-- petal width (cm) -->
     <g transform="translate(837.05824 252.916562)scale(0.1 -0.1)">
      <use xlink:href="#DejaVuSans-112"/>
      <use x="63.476562" xlink:href="#DejaVuSans-101"/>
      <use x="125" xlink:href="#DejaVuSans-116"/>
      <use x="164.208984" xlink:href="#DejaVuSans-97"/>
      <use x="225.488281" xlink:href="#DejaVuSans-108"/>
      <use x="253.271484" xlink:href="#DejaVuSans-32"/>
      <use x="285.058594" xlink:href="#DejaVuSans-119"/>
      <use x="366.845703" xlink:href="#DejaVuSans-105"/>
      <use x="394.628906" xlink:href="#DejaVuSans-100"/>
      <use x="458.105469" xlink:href="#DejaVuSans-116"/>
      <use x="497.314453" xlink:href="#DejaVuSans-104"/>
      <use x="560.693359" xlink:href="#DejaVuSans-32"/>
      <use x="592.480469" xlink:href="#DejaVuSans-40"/>
      <use x="631.494141" xlink:href="#DejaVuSans-99"/>
      <use x="686.474609" xlink:href="#DejaVuSans-109"/>
      <use x="783.886719" xlink:href="#DejaVuSans-41"/>
     </g>
    </g>
   </g>
   <g id="matplotlib.axis_8">
    <g id="ytick_17">
     <g id="line2d_64">
      <g>
       <use style="stroke:#000000;stroke-width:0.8;" x="781.159293" xlink:href="#m7af37dfbe4" y="203.647495"/>
      </g>
     </g>
     <g id="text_51">
      <!-- −0.8 -->
      <g transform="translate(749.876481 207.446714)scale(0.1 -0.1)">
       <use xlink:href="#DejaVuSans-8722"/>
       <use x="83.789062" xlink:href="#DejaVuSans-48"/>
       <use x="147.412109" xlink:href="#DejaVuSans-46"/>
       <use x="179.199219" xlink:href="#DejaVuSans-56"/>
      </g>
     </g>
    </g>
    <g id="ytick_18">
     <g id="line2d_65">
      <g>
       <use style="stroke:#000000;stroke-width:0.8;" x="781.159293" xlink:href="#m7af37dfbe4" y="175.378342"/>
      </g>
     </g>
     <g id="text_52">
      <!-- −0.6 -->
      <g transform="translate(749.876481 179.177561)scale(0.1 -0.1)">
       <use xlink:href="#DejaVuSans-8722"/>
       <use x="83.789062" xlink:href="#DejaVuSans-48"/>
       <use x="147.412109" xlink:href="#DejaVuSans-46"/>
       <use x="179.199219" xlink:href="#DejaVuSans-54"/>
      </g>
     </g>
    </g>
    <g id="ytick_19">
     <g id="line2d_66">
      <g>
       <use style="stroke:#000000;stroke-width:0.8;" x="781.159293" xlink:href="#m7af37dfbe4" y="147.109189"/>
      </g>
     </g>
     <g id="text_53">
      <!-- −0.4 -->
      <g transform="translate(749.876481 150.908408)scale(0.1 -0.1)">
       <use xlink:href="#DejaVuSans-8722"/>
       <use x="83.789062" xlink:href="#DejaVuSans-48"/>
       <use x="147.412109" xlink:href="#DejaVuSans-46"/>
       <use x="179.199219" xlink:href="#DejaVuSans-52"/>
      </g>
     </g>
    </g>
    <g id="ytick_20">
     <g id="line2d_67">
      <g>
       <use style="stroke:#000000;stroke-width:0.8;" x="781.159293" xlink:href="#m7af37dfbe4" y="118.840036"/>
      </g>
     </g>
     <g id="text_54">
      <!-- −0.2 -->
      <g transform="translate(749.876481 122.639254)scale(0.1 -0.1)">
       <use xlink:href="#DejaVuSans-8722"/>
       <use x="83.789062" xlink:href="#DejaVuSans-48"/>
       <use x="147.412109" xlink:href="#DejaVuSans-46"/>
       <use x="179.199219" xlink:href="#DejaVuSans-50"/>
      </g>
     </g>
    </g>
    <g id="ytick_21">
     <g id="line2d_68">
      <g>
       <use style="stroke:#000000;stroke-width:0.8;" x="781.159293" xlink:href="#m7af37dfbe4" y="90.570882"/>
      </g>
     </g>
     <g id="text_55">
      <!-- 0.0 -->
      <g transform="translate(758.256168 94.370101)scale(0.1 -0.1)">
       <use xlink:href="#DejaVuSans-48"/>
       <use x="63.623047" xlink:href="#DejaVuSans-46"/>
       <use x="95.410156" xlink:href="#DejaVuSans-48"/>
      </g>
     </g>
    </g>
    <g id="ytick_22">
     <g id="line2d_69">
      <g>
       <use style="stroke:#000000;stroke-width:0.8;" x="781.159293" xlink:href="#m7af37dfbe4" y="62.301729"/>
      </g>
     </g>
     <g id="text_56">
      <!-- 0.2 -->
      <g transform="translate(758.256168 66.100948)scale(0.1 -0.1)">
       <use xlink:href="#DejaVuSans-48"/>
       <use x="63.623047" xlink:href="#DejaVuSans-46"/>
       <use x="95.410156" xlink:href="#DejaVuSans-50"/>
      </g>
     </g>
    </g>
    <g id="ytick_23">
     <g id="line2d_70">
      <g>
       <use style="stroke:#000000;stroke-width:0.8;" x="781.159293" xlink:href="#m7af37dfbe4" y="34.032576"/>
      </g>
     </g>
     <g id="text_57">
      <!-- 0.4 -->
      <g transform="translate(758.256168 37.831794)scale(0.1 -0.1)">
       <use xlink:href="#DejaVuSans-48"/>
       <use x="63.623047" xlink:href="#DejaVuSans-46"/>
       <use x="95.410156" xlink:href="#DejaVuSans-52"/>
      </g>
     </g>
    </g>
   </g>
   <g id="line2d_71">
    <path clip-path="url(#p3f5ad925e1)" d="M 789.981428 91.199966 
L 791.763677 91.539346 
L 793.545927 91.984629 
L 795.328176 92.550604 
L 797.110425 93.25199 
L 798.892675 94.103328 
L 800.674924 95.118853 
L 802.457173 96.312363 
L 804.239423 97.697036 
L 806.021672 99.285246 
L 807.803922 101.088329 
L 809.586171 103.116361 
L 811.36842 105.377912 
L 813.15067 107.879693 
L 814.932919 110.626326 
L 816.715168 113.62005 
L 818.497418 116.860343 
L 820.279667 120.343692 
L 822.061917 124.063372 
L 823.844166 128.008988 
L 825.626415 132.166636 
L 827.408665 136.518442 
L 829.190914 141.042681 
L 830.973163 145.713872 
L 832.755413 150.502664 
L 834.537662 155.376436 
L 836.319912 160.299252 
L 838.102161 165.232721 
L 839.88441 170.136195 
L 841.66666 174.967777 
L 843.448909 179.68475 
L 845.231158 184.244596 
L 847.013408 188.605854 
L 848.795657 192.728589 
L 850.577906 196.575726 
L 852.360156 200.113394 
L 854.142405 203.311812 
L 855.924655 206.145791 
L 857.706904 208.59507 
L 859.489153 210.644791 
L 861.271403 212.285511 
L 863.053652 213.513185 
L 864.835901 214.329212 
L 866.618151 214.739922 
L 868.4004 214.756364 
L 870.18265 214.393628 
L 871.964899 213.67061 
L 873.747148 212.609167 
L 875.529398 211.233582 
L 877.311647 209.569967 
L 879.093896 207.645708 
L 880.876146 205.488799 
L 882.658395 203.127487 
L 884.440645 200.589621 
L 886.222894 197.902423 
L 888.005143 195.092098 
L 889.787393 192.183536 
L 891.569642 189.200161 
L 893.351891 186.163701 
L 895.134141 183.094201 
L 896.91639 180.009856 
L 898.69864 176.927116 
L 900.480889 173.860624 
L 902.263138 170.823287 
L 904.045388 167.826348 
L 905.827637 164.87949 
L 907.609886 161.990957 
L 909.392136 159.167563 
L 911.174385 156.414886 
L 912.956634 153.737386 
L 914.738884 151.138594 
L 916.521133 148.620958 
L 918.303383 146.186201 
L 920.085632 143.835221 
L 921.867881 141.56847 
L 923.650131 139.385766 
L 925.43238 137.28633 
L 927.214629 135.26926 
L 928.996879 133.333134 
L 930.779128 131.476253 
L 932.561378 129.696791 
L 934.343627 127.992674 
L 936.125876 126.36173 
L 937.908126 124.801694 
L 939.690375 123.310145 
L 941.472624 121.884769 
L 943.254874 120.523125 
L 945.037123 119.222757 
L 946.819373 117.981219 
L 948.601622 116.796215 
L 950.383871 115.665351 
L 952.166121 114.586355 
L 953.94837 113.556971 
L 955.730619 112.574958 
L 957.512869 111.63832 
L 959.295118 110.744902 
L 961.077367 109.892738 
L 962.859617 109.079977 
L 964.641866 108.304778 
L 966.424116 107.565312 
" style="fill:none;stroke:#1f77b4;stroke-linecap:square;stroke-width:1.5;"/>
   </g>
   <g id="line2d_72">
    <path clip-path="url(#p3f5ad925e1)" d="M 789.981428 101.367182 
L 791.763677 100.333287 
L 793.545927 99.507249 
L 795.328176 98.829841 
L 797.110425 98.262744 
L 798.892675 97.779988 
L 800.674924 97.363304 
L 802.457173 96.99944 
L 804.239423 96.678527 
L 806.021672 96.393063 
L 807.803922 96.137226 
L 809.586171 95.906431 
L 811.36842 95.697009 
L 813.15067 95.50599 
L 814.932919 95.330942 
L 816.715168 95.169851 
L 818.497418 95.021036 
L 820.279667 94.88308 
L 822.061917 94.754784 
L 823.844166 94.635117 
L 825.626415 94.523199 
L 827.408665 94.418264 
L 829.190914 94.319649 
L 830.973163 94.226772 
L 832.755413 94.139123 
L 834.537662 94.056252 
L 836.319912 93.977759 
L 838.102161 93.903291 
L 839.88441 93.83253 
L 841.66666 93.765194 
L 843.448909 93.701027 
L 845.231158 93.639801 
L 847.013408 93.581308 
L 848.795657 93.52536 
L 850.577906 93.471786 
L 852.360156 93.420433 
L 854.142405 93.371156 
L 855.924655 93.323828 
L 857.706904 93.278329 
L 859.489153 93.234549 
L 861.271403 93.192389 
L 863.053652 93.151756 
L 864.835901 93.112564 
L 866.618151 93.074735 
L 868.4004 93.038195 
L 870.18265 93.002876 
L 871.964899 92.968714 
L 873.747148 92.935652 
L 875.529398 92.903634 
L 877.311647 92.872609 
L 879.093896 92.84253 
L 880.876146 92.813351 
L 882.658395 92.785032 
L 884.440645 92.757532 
L 886.222894 92.730815 
L 888.005143 92.704846 
L 889.787393 92.679593 
L 891.569642 92.655025 
L 893.351891 92.631113 
L 895.134141 92.607831 
L 896.91639 92.585151 
L 898.69864 92.563051 
L 900.480889 92.541507 
L 902.263138 92.520497 
L 904.045388 92.500001 
L 905.827637 92.479999 
L 907.609886 92.460472 
L 909.392136 92.441404 
L 911.174385 92.422777 
L 912.956634 92.404575 
L 914.738884 92.386784 
L 916.521133 92.369388 
L 918.303383 92.352375 
L 920.085632 92.335731 
L 921.867881 92.319443 
L 923.650131 92.3035 
L 925.43238 92.287891 
L 927.214629 92.272604 
L 928.996879 92.257629 
L 930.779128 92.242957 
L 932.561378 92.228577 
L 934.343627 92.214481 
L 936.125876 92.200659 
L 937.908126 92.187105 
L 939.690375 92.173808 
L 941.472624 92.160763 
L 943.254874 92.147961 
L 945.037123 92.135395 
L 946.819373 92.123059 
L 948.601622 92.110947 
L 950.383871 92.09905 
L 952.166121 92.087364 
L 953.94837 92.075884 
L 955.730619 92.064602 
L 957.512869 92.053515 
L 959.295118 92.042616 
L 961.077367 92.031901 
L 962.859617 92.021364 
L 964.641866 92.011002 
L 966.424116 92.00081 
" style="fill:none;stroke:#ff7f0e;stroke-linecap:square;stroke-width:1.5;"/>
   </g>
   <g id="line2d_73">
    <path clip-path="url(#p3f5ad925e1)" d="M 789.981428 90.544255 
L 791.763677 90.528101 
L 793.545927 90.506037 
L 795.328176 90.476965 
L 797.110425 90.439739 
L 798.892675 90.393166 
L 800.674924 90.336007 
L 802.457173 90.266987 
L 804.239423 90.18479 
L 806.021672 90.088067 
L 807.803922 89.975437 
L 809.586171 89.845492 
L 811.36842 89.696792 
L 813.15067 89.52788 
L 814.932919 89.337276 
L 816.715168 89.123486 
L 818.497418 88.885001 
L 820.279667 88.620308 
L 822.061917 88.327883 
L 823.844166 88.006216 
L 825.626415 87.65379 
L 827.408665 87.26911 
L 829.190914 86.850702 
L 830.973163 86.397106 
L 832.755413 85.906913 
L 834.537662 85.378738 
L 836.319912 84.811264 
L 838.102161 84.203216 
L 839.88441 83.553407 
L 841.66666 82.860708 
L 843.448909 82.1241 
L 845.231158 81.342656 
L 847.013408 80.515546 
L 848.795657 79.642104 
L 850.577906 78.721762 
L 852.360156 77.754125 
L 854.142405 76.738944 
L 855.924655 75.676148 
L 857.706904 74.565864 
L 859.489153 73.408399 
L 861.271403 72.20428 
L 863.053652 70.954279 
L 864.835901 69.659338 
L 866.618151 68.320692 
L 868.4004 66.939778 
L 870.18265 65.518374 
L 871.964899 64.058405 
L 873.747148 62.562134 
L 875.529398 61.032044 
L 877.311647 59.470951 
L 879.093896 57.881853 
L 880.876146 56.268026 
L 882.658395 54.633046 
L 884.440645 52.98062 
L 886.222894 51.314749 
L 888.005143 49.639687 
L 889.787393 47.959776 
L 891.569642 46.279604 
L 893.351891 44.603808 
L 895.134141 42.93728 
L 896.91639 41.28486 
L 898.69864 39.651553 
L 900.480889 38.042399 
L 902.263138 36.46237 
L 904.045388 34.916396 
L 905.827637 33.409384 
L 907.609886 31.946177 
L 909.392136 30.531344 
L 911.174385 29.16934 
L 912.956634 27.864476 
L 914.738884 26.620821 
L 916.521133 25.442145 
L 918.303383 24.331926 
L 920.085632 23.29326 
L 921.867881 22.329088 
L 923.650131 21.441908 
L 925.43238 20.633705 
L 927.214629 19.906413 
L 928.996879 19.261361 
L 930.779128 18.699476 
L 932.561378 18.221415 
L 934.343627 17.827385 
L 936.125876 17.517281 
L 937.908126 17.290574 
L 939.690375 17.146396 
L 941.472624 17.083636 
L 943.254874 17.100761 
L 945.037123 17.195967 
L 946.819373 17.367186 
L 948.601622 17.612164 
L 950.383871 17.928345 
L 952.166121 18.313023 
L 953.94837 18.763275 
L 955.730619 19.276051 
L 957.512869 19.848211 
L 959.295118 20.476484 
L 961.077367 21.157524 
L 962.859617 21.887967 
L 964.641866 22.664387 
L 966.424116 23.483381 
" style="fill:none;stroke:#2ca02c;stroke-linecap:square;stroke-width:1.5;"/>
   </g>
   <g id="patch_21">
    <path d="M 781.159293 224.64 
L 781.159293 7.2 
" style="fill:none;stroke:#000000;stroke-linecap:square;stroke-linejoin:miter;stroke-width:0.8;"/>
   </g>
   <g id="patch_22">
    <path d="M 975.24625 224.64 
L 975.24625 7.2 
" style="fill:none;stroke:#000000;stroke-linecap:square;stroke-linejoin:miter;stroke-width:0.8;"/>
   </g>
   <g id="patch_23">
    <path d="M 781.159293 224.64 
L 975.24625 224.64 
" style="fill:none;stroke:#000000;stroke-linecap:square;stroke-linejoin:miter;stroke-width:0.8;"/>
   </g>
   <g id="patch_24">
    <path d="M 781.159293 7.2 
L 975.24625 7.2 
" style="fill:none;stroke:#000000;stroke-linecap:square;stroke-linejoin:miter;stroke-width:0.8;"/>
   </g>
   <g id="legend_4">
    <g id="patch_25">
     <path d="M 788.159293 59.234375 
L 868.954606 59.234375 
Q 870.954606 59.234375 870.954606 57.234375 
L 870.954606 14.2 
Q 870.954606 12.2 868.954606 12.2 
L 788.159293 12.2 
Q 786.159293 12.2 786.159293 14.2 
L 786.159293 57.234375 
Q 786.159293 59.234375 788.159293 59.234375 
z
" style="fill:#ffffff;opacity:0.8;stroke:#cccccc;stroke-linejoin:miter;"/>
    </g>
    <g id="line2d_74">
     <path d="M 790.159293 20.298437 
L 810.159293 20.298437 
" style="fill:none;stroke:#1f77b4;stroke-linecap:square;stroke-width:1.5;"/>
    </g>
    <g id="line2d_75"/>
    <g id="text_58">
     <!-- setosa -->
     <g transform="translate(818.159293 23.798437)scale(0.1 -0.1)">
      <use xlink:href="#DejaVuSans-115"/>
      <use x="52.099609" xlink:href="#DejaVuSans-101"/>
      <use x="113.623047" xlink:href="#DejaVuSans-116"/>
      <use x="152.832031" xlink:href="#DejaVuSans-111"/>
      <use x="214.013672" xlink:href="#DejaVuSans-115"/>
      <use x="266.113281" xlink:href="#DejaVuSans-97"/>
     </g>
    </g>
    <g id="line2d_76">
     <path d="M 790.159293 34.976562 
L 810.159293 34.976562 
" style="fill:none;stroke:#ff7f0e;stroke-linecap:square;stroke-width:1.5;"/>
    </g>
    <g id="line2d_77"/>
    <g id="text_59">
     <!-- versicolor -->
     <g transform="translate(818.159293 38.476562)scale(0.1 -0.1)">
      <use xlink:href="#DejaVuSans-118"/>
      <use x="59.179688" xlink:href="#DejaVuSans-101"/>
      <use x="120.703125" xlink:href="#DejaVuSans-114"/>
      <use x="161.816406" xlink:href="#DejaVuSans-115"/>
      <use x="213.916016" xlink:href="#DejaVuSans-105"/>
      <use x="241.699219" xlink:href="#DejaVuSans-99"/>
      <use x="296.679688" xlink:href="#DejaVuSans-111"/>
      <use x="357.861328" xlink:href="#DejaVuSans-108"/>
      <use x="385.644531" xlink:href="#DejaVuSans-111"/>
      <use x="446.826172" xlink:href="#DejaVuSans-114"/>
     </g>
    </g>
    <g id="line2d_78">
     <path d="M 790.159293 49.654687 
L 810.159293 49.654687 
" style="fill:none;stroke:#2ca02c;stroke-linecap:square;stroke-width:1.5;"/>
    </g>
    <g id="line2d_79"/>
    <g id="text_60">
     <!-- virginica -->
     <g transform="translate(818.159293 53.154687)scale(0.1 -0.1)">
      <use xlink:href="#DejaVuSans-118"/>
      <use x="59.179688" xlink:href="#DejaVuSans-105"/>
      <use x="86.962891" xlink:href="#DejaVuSans-114"/>
      <use x="126.326172" xlink:href="#DejaVuSans-103"/>
      <use x="189.802734" xlink:href="#DejaVuSans-105"/>
      <use x="217.585938" xlink:href="#DejaVuSans-110"/>
      <use x="280.964844" xlink:href="#DejaVuSans-105"/>
      <use x="308.748047" xlink:href="#DejaVuSans-99"/>
      <use x="363.728516" xlink:href="#DejaVuSans-97"/>
     </g>
    </g>
   </g>
  </g>
 </g>
 <defs>
  <clipPath id="p69f1b1eed9">
   <rect height="217.44" width="194.086957" x="82.44625" y="7.2"/>
  </clipPath>
  <clipPath id="p9fba564d0d">
   <rect height="217.44" width="194.086957" x="315.350598" y="7.2"/>
  </clipPath>
  <clipPath id="p56ecdf1897">
   <rect height="217.44" width="194.086957" x="548.254946" y="7.2"/>
  </clipPath>
  <clipPath id="p3f5ad925e1">
   <rect height="217.44" width="194.086957" x="781.159293" y="7.2"/>
  </clipPath>
 </defs>
</svg>
